<?xml version="1.0" encoding="UTF-8"?>
<svg width="128px" height="128px" viewBox="0 0 128 128" version="1.1" xmlns="http://www.w3.org/2000/svg" xmlns:xlink="http://www.w3.org/1999/xlink">
    <!-- Generator: Sketch 50.2 (55047) - http://www.bohemiancoding.com/sketch -->
    <title>Group</title>
    <desc>Created with Sketch.</desc>
    <defs></defs>
    <g id="Page-1" stroke="none" stroke-width="1" fill="none" fill-rule="evenodd">
        <g id="noun_183053_cc">
            <g id="Group">
                <rect id="Rectangle" fill="#FFFFFF" x="0" y="0" width="128" height="128"></rect>
                <path d="M60.883,18.389 C61.635,19.272 62.386,20.155 63.306,21.234 C62.863,21.297 62.556,21.279 62.304,21.389 C61.732,21.641 61.188,21.956 60.632,22.244 C61.088,22.781 61.439,23.525 62.018,23.812 C63.691,24.643 63.997,25.42 63.055,27.504 C62.762,27.392 62.455,27.282 62.156,27.159 C61.943,27.071 61.738,26.964 61.035,26.633 C62.194,28.508 63.148,29.855 63.892,31.31 C64.687,32.866 65.055,34.371 63.205,35.708 C62.566,36.17 62.24,37.425 62.231,38.322 C62.212,40.038 62.339,41.801 62.733,43.466 C63.582,47.053 62.526,48.429 58.91,48.522 C55.895,48.6 52.914,49.07 50.354,50.815 C50.393,51.01 50.431,51.204 50.47,51.398 C52.058,51.143 53.641,50.802 55.241,50.655 C56.602,50.53 58.236,50.164 59.294,50.74 C60.684,51.497 62.182,52.902 62.628,54.34 C63.23,56.282 62.421,58.382 60.564,59.643 C60.07,59.979 59.212,59.863 58.528,59.823 C56.829,59.726 55.11,59.303 53.448,59.475 C51.246,59.703 49.115,59.889 47.197,58.637 C43.358,56.131 42.888,52.26 45.99,48.874 C47.073,47.692 48.296,46.638 49.456,45.524 C49.335,45.357 49.216,45.188 49.097,45.02 C48.277,45.423 47.464,45.841 46.634,46.225 C44.897,47.028 44.386,46.668 44.293,44.807 C44.11,41.152 46.357,39.079 49.049,37.263 C49.711,36.817 50.366,36.362 51.027,35.661 C48.765,36.332 47.682,35.536 47.2,33.402 C46.696,31.177 47.04,29.516 49.042,28.367 C50.571,27.492 52.335,27.028 53.908,26.414 C53.722,25.756 53.082,24.715 53.374,24.195 C53.712,23.588 54.884,23.471 55.661,23.076 C56.549,22.624 57.42,22.126 58.243,21.566 C58.318,21.514 57.912,20.534 57.861,20.545 C56.898,20.771 55.888,20.953 55.028,21.409 C54,21.953 53.109,22.752 52.146,23.422 C52.066,23.478 51.883,23.385 51.642,23.342 C51.502,21.864 51.846,20.65 53.362,20.006 C54.75,19.417 56.143,18.837 57.533,18.253 C58.65,18.3 59.767,18.345 60.883,18.389 Z M22.62,63.386 C23.016,62.666 23.427,61.953 23.808,61.224 C24.675,59.569 25.79,58.923 27.715,59.744 C28.439,60.052 29.522,59.652 30.4,59.416 C31.184,59.204 31.91,58.775 32.78,58.392 C32.81,59.524 32.835,60.469 32.859,61.414 C33.05,61.578 33.24,61.742 33.43,61.906 C33.633,61.499 33.772,61.044 34.048,60.695 C34.652,59.932 35.268,59.166 35.975,58.503 C39.013,55.649 41.958,55.748 44.429,59.014 C45.627,60.597 46.787,61.25 48.858,61.17 C51.746,61.06 54.743,61.211 57.539,61.884 C62.329,63.036 63.885,66.315 62.369,71.293 C60.837,70.625 59.314,69.958 57.793,69.294 C57.7,69.457 57.608,69.621 57.516,69.785 C58.682,70.616 59.925,71.36 60.986,72.306 C61.875,73.098 63.06,74.046 63.224,75.069 C63.655,77.757 63.948,80.562 63.641,83.247 C63.356,85.737 60.952,86.367 58.909,84.844 C58.522,84.553 58.124,84.23 57.858,83.836 C56.662,82.066 55.288,80.657 52.963,80.443 C52.457,80.395 51.934,79.639 51.57,79.107 C49.573,76.188 47.728,73.158 45.596,70.344 C44.97,69.52 43.62,69.111 42.521,68.811 C40.722,68.321 38.84,68.141 37.022,67.711 C34.458,67.104 32.071,66.675 29.364,67.747 C25.765,69.17 24.489,68.55 22.52,65.895 C22.553,65.059 22.586,64.223 22.62,63.386 Z M55.966,109.985 C54.228,109.302 52.508,108.566 50.745,107.952 C49.018,107.351 47.25,106.873 44.974,106.183 C47.803,105.36 49.974,106.048 52.128,106.637 C53.462,107.006 54.735,107.593 56.054,108.029 C58.041,108.682 60.112,107.973 61.749,105.888 C60.871,106.092 60.316,106.257 59.747,106.341 C58.665,106.501 57.571,106.752 56.492,106.706 C55.115,106.646 53.24,106.463 53.316,104.794 C53.361,103.785 54.772,102.462 55.877,101.959 C57.932,101.024 60.211,100.589 62.707,99.855 C61.776,103.883 58.185,102.935 55.774,103.918 C55.809,104.101 55.845,104.287 55.882,104.47 C56.585,104.374 57.315,104.366 57.987,104.168 C60.42,103.448 62.742,103.928 63.276,105.32 C63.712,106.459 61.757,108.761 59.748,109.475 C59.186,109.673 58.621,109.87 58.058,110.067 C57.361,110.041 56.664,110.012 55.966,109.985 Z M46.514,93.28 C46.957,93.954 47.4,94.629 47.841,95.301 C44.277,96.754 41.955,94.842 40.046,89.058 C39.906,89.864 39.767,90.667 39.603,91.608 C37.2,91.94 34.585,91.919 32.823,90.153 C31.276,88.603 30.469,86.315 29.366,84.408 C29.225,84.671 28.919,85.249 28.618,85.811 C26.485,85.536 24.872,83.395 24.104,79.339 C26.612,82.124 29.37,83.149 32.878,82.877 C32.371,82.394 32.028,81.864 31.545,81.648 C30.152,81.023 28.74,80.375 27.266,80.021 C25.683,79.642 25.093,78.736 24.999,77.032 C27.978,76.752 30.415,77.812 32.811,79.297 C35.554,80.997 35.141,83.861 35.374,86.524 C35.562,86.509 35.75,86.495 35.939,86.48 C36.219,85.878 36.397,85.194 36.804,84.692 C37.364,83.998 38.116,82.922 38.745,82.95 C39.67,82.987 40.721,83.697 41.427,84.41 C42.239,85.231 42.624,86.464 43.399,87.335 C44.073,88.092 44.953,88.792 45.883,89.167 C48.345,90.16 50.872,91.003 53.403,91.809 C53.956,91.986 54.636,91.763 55.258,91.348 C54.099,90.885 52.939,90.423 51.663,89.913 C52.372,88.87 52.87,88.136 53.634,87.011 C52.759,87.311 52.264,87.429 51.819,87.646 C46.677,90.129 42.342,87.286 42.445,81.476 C42.467,80.253 42.538,79.029 42.588,77.804 C42.358,77.77 42.129,77.735 41.9,77.7 C41.77,77.857 41.602,77.997 41.517,78.177 C40.992,79.249 41.668,81.205 39.659,81.174 C37.58,81.141 35.287,80.984 34.12,78.925 C33.143,77.2 32.616,75.22 31.887,73.355 C31.777,73.073 31.658,72.792 31.291,71.895 C30.937,73.569 30.717,74.609 30.499,75.635 C26.393,76.439 23.885,75.117 23.181,71.806 C22.807,70.045 23.322,69.567 25.147,69.478 C26.648,69.405 28.186,69.181 29.613,68.729 C32.353,67.86 35.637,68.208 39.422,70.057 C38.876,70.828 38.327,71.605 37.755,72.414 C38.114,72.586 38.191,72.654 38.227,72.638 C42.867,70.403 45.068,71.252 47.132,76.008 C48.363,78.848 50.236,81.058 53.252,82.196 C54.106,82.52 54.864,83.198 55.553,83.834 C57.25,85.408 58.548,87.544 61.398,87.299 C61.764,87.267 62.548,88.42 62.606,89.072 C62.912,92.535 60.634,95.29 56.952,96.195 C53.874,96.951 51.371,95.85 49.072,93.908 C48.466,93.394 47.72,93.041 47.037,92.614 C46.862,92.834 46.688,93.058 46.514,93.28 Z M50.096,20.513 C50.259,22.281 50.392,23.721 50.551,25.427 C50.455,25.49 50.083,25.819 49.65,26 C46.203,27.436 45.236,30.32 45.472,33.652 C45.616,35.677 45.318,37.198 43.761,38.671 C41.75,40.572 41.463,44.707 42.785,47.261 C43.027,47.728 43.186,48.24 43.506,49.035 C42.318,48.81 41.443,48.644 40.424,48.452 C43.075,52.267 43.085,52.303 42.354,55.066 C40.029,53.82 37.847,53.929 35.647,55.5 C33.527,57.014 31.196,57.987 28.456,57.895 C27.255,57.855 26.178,57.972 25.769,56.611 C25.303,55.061 24.975,53.482 26.406,51.555 C26.821,53.222 27.104,54.363 27.469,55.823 C28.645,54.344 27.894,51.675 30.58,52.014 C32.22,52.222 33.857,52.44 35.797,52.692 C34.377,50.967 32.567,50.913 30.96,50.985 C29.381,51.055 28.758,50.476 28.551,49.11 C28.447,48.425 28.374,47.726 28.384,47.036 C28.409,45.038 28.93,43.094 30.989,42.473 C32.925,41.889 34.138,43.394 35.248,44.82 C35.947,45.719 36.834,46.473 37.637,47.293 C37.801,47.15 37.965,47.008 38.13,46.866 C37.762,46.387 37.433,45.871 37.022,45.432 C35.355,43.648 34.819,41.587 35.587,39.274 C36.156,37.564 37.259,36.493 39.221,36.339 C41.045,36.197 43.023,36.102 43.847,33.743 C42.123,33.411 40.024,35.511 38.89,33.156 C37.733,30.753 40.885,30.383 41.513,28.232 C40.284,29.005 39.346,29.598 38.407,30.19 C38.298,30.098 38.189,30.005 38.082,29.913 C38.481,29.39 38.77,28.626 39.3,28.38 C43.011,26.655 45.645,23.519 48.897,21.204 C49.169,21.005 49.481,20.863 50.096,20.513 Z M25.341,86.3 C27.542,87.228 29.034,88.426 30.354,90.179 C32.24,92.679 35.349,93.063 38.306,93.158 C39.356,93.192 39.877,93.363 40.394,94.34 C41.804,97.01 44.01,97.785 47.101,97.277 C48.611,97.028 50.246,96.998 51.738,97.297 C55.778,98.109 59.667,98.66 62.581,94.58 C62.738,94.685 62.896,94.792 63.054,94.896 C62.993,95.539 63.136,96.314 62.822,96.787 C62.386,97.443 61.688,98.115 60.962,98.357 C57.219,99.612 53.476,100.92 49.647,101.843 C45.759,102.781 42.335,101.058 40.114,97.747 C39.657,97.066 38.754,96.436 37.957,96.272 C32.564,95.169 28.1,92.854 25.752,87.537 C25.615,87.229 25.536,86.896 25.341,86.3 Z M32.837,96.649 C33.042,96.605 33.111,96.576 33.178,96.579 C36.336,96.785 38.799,97.961 40.847,100.621 C41.993,102.108 44.282,102.716 46.028,103.7 C42.112,105.166 36.481,102.214 32.837,96.649 Z M36.735,32.937 C36.839,33.827 37.138,34.516 36.937,34.993 C36.214,36.701 35.46,38.431 34.424,39.953 C33.999,40.578 32.824,40.69 31.989,41.035 C31.816,40.363 31.302,39.53 31.531,39.048 C32.34,37.335 33.33,35.69 34.411,34.131 C34.752,33.639 35.594,33.497 36.735,32.937 Z M69.38,17.97 C70.498,17.958 71.614,17.944 72.728,17.929 C74.103,18.551 75.478,19.17 76.85,19.798 C78.347,20.483 78.657,21.707 78.476,23.18 C78.233,23.216 78.049,23.304 77.971,23.246 C77.026,22.549 76.158,21.725 75.146,21.153 C74.299,20.673 73.294,20.464 72.338,20.211 C72.288,20.198 71.854,21.167 71.928,21.221 C72.734,21.804 73.59,22.325 74.467,22.802 C75.232,23.219 76.398,23.368 76.721,23.985 C76.997,24.513 76.328,25.535 76.125,26.188 C77.681,26.845 79.43,27.358 80.932,28.276 C82.905,29.48 83.2,31.15 82.634,33.36 C82.093,35.48 80.987,36.245 78.745,35.511 C79.386,36.23 80.028,36.704 80.677,37.168 C83.319,39.058 85.505,41.194 85.221,44.842 C85.077,46.7 84.556,47.045 82.842,46.195 C82.023,45.789 81.223,45.348 80.413,44.922 C80.289,45.088 80.165,45.252 80.041,45.417 C81.169,46.562 82.362,47.65 83.412,48.862 C86.419,52.333 85.84,56.19 81.933,58.587 C79.979,59.785 77.854,59.541 75.662,59.251 C74.003,59.031 72.273,59.408 70.573,59.457 C69.889,59.477 69.028,59.57 68.543,59.221 C66.723,57.907 65.972,55.784 66.629,53.861 C67.114,52.437 68.652,51.074 70.06,50.356 C71.136,49.81 72.759,50.221 74.116,50.384 C75.711,50.575 77.283,50.959 78.865,51.259 C78.91,51.066 78.952,50.873 78.996,50.68 C76.487,48.864 73.522,48.31 70.508,48.148 C66.894,47.954 65.879,46.55 66.828,42.988 C67.267,41.334 67.445,39.576 67.474,37.86 C67.49,36.962 67.198,35.699 66.572,35.219 C64.762,33.83 65.171,32.335 66.009,30.803 C66.795,29.37 67.785,28.048 68.995,26.207 C68.284,26.519 68.076,26.62 67.86,26.702 C67.558,26.816 67.25,26.917 66.953,27.021 C66.07,24.912 66.397,24.144 68.091,23.36 C68.678,23.089 69.051,22.354 69.524,21.831 C68.975,21.528 68.44,21.198 67.875,20.93 C67.627,20.812 67.32,20.822 66.878,20.746 C67.828,19.694 68.603,18.832 69.38,17.97 Z M106.372,64.018 C106.382,64.855 106.392,65.693 106.402,66.531 C104.361,69.127 103.066,69.712 99.508,68.188 C96.833,67.042 94.435,67.403 91.855,67.939 C90.026,68.319 88.14,68.444 86.328,68.885 C85.222,69.152 83.86,69.523 83.212,70.332 C81.003,73.084 79.072,76.06 76.997,78.923 C76.618,79.447 76.071,80.186 75.567,80.219 C73.236,80.37 71.825,81.739 70.579,83.474 C70.303,83.86 69.896,84.174 69.5,84.453 C67.414,85.919 65.03,85.222 64.814,82.725 C64.582,80.033 64.954,77.237 65.459,74.561 C65.652,73.544 66.863,72.629 67.773,71.862 C68.861,70.945 70.125,70.237 71.312,69.439 C71.224,69.272 71.137,69.107 71.048,68.939 C69.51,69.562 67.969,70.184 66.419,70.811 C65.042,65.79 66.691,62.559 71.51,61.54 C74.324,60.945 77.323,60.877 80.207,61.069 C82.274,61.206 83.451,60.585 84.693,59.037 C87.255,55.843 90.204,55.824 93.159,58.762 C93.845,59.446 94.441,60.229 95.023,61.008 C95.289,61.364 95.417,61.824 95.608,62.236 C95.801,62.079 95.998,61.919 96.192,61.761 C96.243,60.816 96.295,59.873 96.356,58.742 C97.215,59.15 97.929,59.599 98.707,59.833 C99.578,60.093 100.65,60.523 101.382,60.236 C103.329,59.469 104.425,60.146 105.245,61.824 C105.605,62.563 105.996,63.287 106.372,64.018 Z M71.737,109.668 C71.04,109.677 70.343,109.686 69.642,109.695 C69.083,109.483 68.525,109.271 67.969,109.055 C65.979,108.285 64.091,105.931 64.558,104.806 C65.132,103.425 67.466,103.012 69.876,103.8 C70.545,104.016 71.273,104.046 71.975,104.161 C72.014,103.978 72.057,103.795 72.096,103.61 C69.717,102.561 66.097,103.407 65.281,99.356 C67.754,100.159 70.022,100.657 72.048,101.648 C73.139,102.181 74.511,103.544 74.53,104.553 C74.561,106.227 72.68,106.356 71.3,106.377 C70.22,106.392 69.135,106.109 68.057,105.921 C67.491,105.822 66.94,105.64 66.068,105.412 C67.648,107.543 69.698,108.309 71.703,107.71 C73.034,107.312 74.323,106.76 75.667,106.43 C77.835,105.901 80.025,105.274 82.831,106.173 C80.537,106.801 78.755,107.228 77.013,107.783 C75.235,108.346 73.494,109.034 71.737,109.668 Z M81.651,93.233 C81.484,93.006 81.317,92.778 81.15,92.552 C80.457,92.959 79.701,93.29 79.079,93.787 C76.729,95.664 74.195,96.696 71.138,95.854 C67.485,94.846 65.285,92.027 65.687,88.575 C65.764,87.925 66.58,86.795 66.945,86.837 C69.785,87.161 71.143,85.064 72.884,83.538 C73.591,82.921 74.369,82.265 75.23,81.966 C78.275,80.91 80.21,78.754 81.519,75.95 C83.715,71.254 85.939,70.466 90.514,72.829 C90.551,72.848 90.63,72.78 90.993,72.619 C90.444,71.794 89.914,71.003 89.393,70.215 C93.227,68.474 96.52,68.218 99.235,69.162 C100.648,69.655 102.179,69.921 103.677,70.036 C105.5,70.176 106,70.669 105.577,72.417 C104.781,75.71 102.237,76.959 98.156,76.041 C97.966,75.008 97.775,73.962 97.468,72.279 C97.076,73.166 96.948,73.443 96.831,73.721 C96.049,75.567 95.468,77.531 94.443,79.226 C93.218,81.254 90.922,81.347 88.843,81.323 C86.834,81.296 87.564,79.36 87.069,78.275 C86.988,78.092 86.825,77.949 86.7,77.787 C86.47,77.815 86.238,77.845 86.008,77.874 C86.023,79.099 86.063,80.323 86.049,81.547 C85.989,87.357 81.576,90.079 76.505,87.451 C76.065,87.224 75.576,87.093 74.71,86.768 C75.441,87.913 75.92,88.661 76.598,89.724 C75.308,90.198 74.136,90.627 72.966,91.056 C73.576,91.49 74.249,91.73 74.807,91.569 C77.36,90.834 79.909,90.064 82.398,89.14 C83.337,88.791 84.238,88.114 84.931,87.377 C85.731,86.528 86.149,85.307 86.984,84.509 C87.709,83.815 88.781,83.135 89.708,83.123 C90.338,83.112 91.06,84.21 91.6,84.918 C91.991,85.431 92.15,86.12 92.413,86.732 C92.601,86.751 92.789,86.77 92.977,86.791 C93.283,84.137 92.951,81.261 95.74,79.639 C98.175,78.221 100.64,77.229 103.612,77.591 C103.469,79.292 102.855,80.182 101.261,80.518 C99.779,80.83 98.348,81.44 96.939,82.025 C96.449,82.227 96.094,82.748 95.573,83.216 C99.072,83.585 101.857,82.639 104.442,79.923 C103.561,83.958 101.889,86.054 99.748,86.269 C99.465,85.697 99.174,85.11 99.041,84.843 C97.886,86.719 97.015,88.983 95.425,90.489 C93.615,92.206 91.001,92.153 88.607,91.755 C88.47,90.811 88.353,90.002 88.235,89.195 C86.166,94.922 83.791,96.769 80.27,95.217 C80.729,94.558 81.191,93.894 81.651,93.233 Z M80.104,20.395 C80.707,20.761 81.016,20.913 81.285,21.114 C84.472,23.52 87.018,26.727 90.679,28.555 C91.202,28.816 91.469,29.588 91.853,30.122 C91.744,30.211 91.632,30.301 91.521,30.39 C90.6,29.772 89.677,29.155 88.471,28.346 C89.037,30.515 92.177,30.974 90.955,33.344 C89.755,35.666 87.715,33.509 85.983,33.791 C86.74,36.173 88.716,36.322 90.535,36.516 C92.491,36.724 93.565,37.825 94.085,39.55 C94.79,41.884 94.196,43.929 92.48,45.665 C92.058,46.093 91.714,46.598 91.334,47.068 C91.492,47.215 91.652,47.362 91.814,47.508 C92.638,46.712 93.545,45.982 94.272,45.103 C95.418,43.708 96.675,42.237 98.594,42.875 C100.633,43.553 101.101,45.51 101.071,47.508 C101.06,48.199 100.967,48.895 100.845,49.577 C100.599,50.938 99.959,51.5 98.384,51.386 C96.781,51.269 94.968,51.272 93.501,52.956 C95.447,52.759 97.089,52.587 98.733,52.426 C101.428,52.162 100.604,54.809 101.74,56.321 C102.144,54.871 102.459,53.74 102.918,52.084 C104.296,54.051 103.924,55.62 103.416,57.156 C102.969,58.505 101.894,58.359 100.692,58.365 C97.953,58.38 95.646,57.342 93.572,55.769 C91.416,54.137 89.238,53.967 86.881,55.149 C86.225,52.366 86.236,52.331 88.995,48.591 C87.969,48.756 87.089,48.897 85.896,49.09 C86.238,48.303 86.411,47.796 86.667,47.336 C88.06,44.819 87.888,40.679 85.931,38.721 C84.416,37.207 84.162,35.678 84.36,33.657 C84.69,30.334 83.804,27.424 80.399,25.892 C79.969,25.699 79.606,25.359 79.513,25.295 C79.719,23.593 79.892,22.158 80.104,20.395 Z M103.014,86.849 C102.802,87.436 102.712,87.768 102.568,88.072 C100.073,93.321 95.546,95.511 90.124,96.464 C89.323,96.604 88.403,97.209 87.927,97.877 C85.615,101.123 82.143,102.751 78.284,101.704 C74.48,100.673 70.776,99.26 67.071,97.903 C66.351,97.638 65.672,96.951 65.255,96.283 C64.954,95.802 65.117,95.029 65.075,94.387 C65.235,94.286 65.396,94.184 65.557,94.082 C68.356,98.244 72.258,97.799 76.32,97.102 C77.819,96.844 79.453,96.919 80.956,97.209 C84.032,97.806 86.258,97.094 87.741,94.462 C88.285,93.501 88.81,93.344 89.86,93.338 C92.822,93.327 95.939,93.032 97.893,90.583 C99.262,88.869 100.786,87.712 103.014,86.849 Z M95.231,96.982 C91.434,102.445 85.722,105.238 81.846,103.665 C83.621,102.726 85.925,102.183 87.111,100.728 C89.234,98.127 91.728,97.02 94.891,96.904 C94.959,96.901 95.026,96.933 95.231,96.982 Z M93.113,33.187 C94.237,33.779 95.075,33.944 95.402,34.443 C96.438,36.033 97.383,37.703 98.144,39.439 C98.358,39.928 97.822,40.746 97.629,41.413 C96.806,41.045 95.634,40.9 95.227,40.265 C94.232,38.714 93.527,36.963 92.852,35.236 C92.664,34.754 92.983,34.073 93.113,33.187 Z" id="Combined-Shape" fill="#2A94B0" fill-rule="nonzero"></path>
            </g>
        </g>
    </g>
</svg>