<?xml version="1.0" encoding="UTF-8"?>
<svg width="512px" height="512px" viewBox="0 0 512 512" version="1.1" xmlns="http://www.w3.org/2000/svg" xmlns:xlink="http://www.w3.org/1999/xlink">
    <!-- Generator: Sketch 50.2 (55047) - http://www.bohemiancoding.com/sketch -->
    <title>logo</title>
    <desc>Created with Sketch.</desc>
    <defs>
        <radialGradient cx="50%" cy="50%" fx="50%" fy="50%" r="50%" id="radialGradient-1">
            <stop stop-color="#FFFFFF" offset="0%"></stop>
            <stop stop-color="#FDF4D9" offset="100%"></stop>
        </radialGradient>
    </defs>
    <g id="Page-1" stroke="none" stroke-width="1" fill="none" fill-rule="evenodd">
        <g id="logo">
            <rect id="Rectangle" fill="url(#radialGradient-1)" fill-rule="nonzero" x="0" y="0" width="512" height="512" rx="96"></rect>
            <g id="cerebrum" transform="translate(112.000000, 93.000000)" fill="#496D92">
                <path d="M188.03559,16.4733649 C194.038351,13.7877694 213.866978,23.3375678 216.070494,24.8724251 C218.274011,26.4072825 220.872231,30.0694253 212.052639,33.2024191 C203.233047,36.3354129 194.348135,32.0400976 192.620991,33.2024191 C190.893847,34.3647405 195.087032,35.2646766 202.053042,39.9318771 C209.019053,44.5990775 210.716936,42.0453061 216.070494,48.9134964 C221.424053,55.7816866 227.690719,63.2917846 224.145173,68.2743255 C220.599627,73.2568665 212.231756,65.5674785 209.746857,65.5674785 C207.261958,65.5674785 205.928299,72.4637245 202.053042,68.2743255 C199.469538,65.4813928 196.325521,60.3994908 192.620991,53.0286194 C190.305429,43.5971614 188.776962,39.5944289 188.03559,41.0204217 C187.294219,42.4464145 188.822685,47.8440945 192.620991,57.2134615 C194.814382,64.2600023 197.9584,69.0335833 202.053042,71.5342046 C208.195007,75.2851365 209.32937,68.3931323 216.070494,71.5342046 C222.811619,74.6752768 226.452795,83.8850572 228.55948,83.8850572 C230.666164,83.8850572 224.076107,73.6906763 228.55948,71.5342046 C233.042852,69.3777329 240.554997,73.8279562 242.225594,77.311749 C243.896192,80.7955419 237.213785,82.2577801 237.213785,89.5815239 C237.213785,96.9052676 242.225594,96.9301809 242.225594,104.610947 C242.225594,112.291713 239.794757,117.720127 237.213785,120.016511 C229.759943,126.648465 221.583613,122.73603 220.403653,123.033627 C218.020852,123.63459 226.223484,114.60754 226.223484,108.64682 C226.223484,102.6861 224.361916,93.1400156 220.403653,92.3152045 C216.44539,91.4903934 209.815054,88.5112056 207.561484,92.3152045 C205.307914,96.1192034 199.691243,99.2349941 202.053042,100.764255 C204.414841,102.293517 207.82074,94.6533911 212.052639,94.6533911 C216.284537,94.6533911 218.419758,96.023881 220.403653,100.764255 C222.387548,105.50463 222.665125,108.576948 220.403653,114.60754 C218.142181,120.638133 219.187551,120.471814 212.052639,123.033627 C204.917727,125.595439 201.386403,123.033627 196.936132,123.033627 C192.485861,123.033627 186.417714,125.436875 182.03283,120.016511 C179.51478,115.79375 182.307234,111.463173 182.03283,108.64682 C181.686128,105.088441 180.505856,101.912943 185.643305,98.480386 C190.780754,95.047829 200.46679,97.9737715 196.936132,94.6533911 C193.405474,91.3330108 185.123636,98.2498859 182.03283,94.6533911 C178.942024,91.0568963 183.432367,87.7230996 182.03283,77.311749 C180.633293,66.9003984 177,62.1860674 177,57.2134615 C177,52.2408556 182.03283,56.1467953 182.03283,48.9134964 C182.03283,41.6801975 177,37.9858418 177,33.2024191 C177,28.4189964 177.971915,26.5036553 180.866706,22.1153886 C181.68281,20.8782416 193.902374,24.052849 194.127264,23.203489 C194.700079,21.0400965 183.725138,18.4018331 188.03559,16.4733649 Z M224.460645,32.8938879 C229.371015,35.7951846 225.823407,45.1757866 234.436856,52.2367685 C243.050306,59.2977504 254.553334,55.7842807 261.461757,63.2260091 C268.37018,70.6677375 255.390075,70.8899477 252.727935,71.9398516 C249.983801,73.0220923 248.000442,77.5544584 245.065561,77.0338094 C242.330742,76.5486516 241.367287,72.5990239 239.880471,71.9398516 C237.478442,70.8749237 235.173778,70.2317268 233.472438,68.6556029 C232.887113,68.1133563 227.958352,69.3655983 227.100393,68.6556029 C226.114979,67.8401336 228.685665,63.9566329 228.071888,63.2260091 C225.636525,60.3270204 225.464069,57.7030825 222.296728,52.2367685 C218.33113,45.3927951 217.829915,45.3610973 214.836367,43.1459396 C207.722263,37.8816647 203.965524,36.8697879 208.428636,36.8697879 C217.940359,36.8697879 219.550274,29.9925912 224.460645,32.8938879 Z M229.432288,34.7616324 C230.664201,32.8608381 233.865985,33.849954 239.03764,37.7289799 L247.91495,45.8852219 L254.823117,57.0088115 L240.380842,53.4935289 L232.793464,47.3635051 C229.320767,40.8630509 228.200375,36.6624266 229.432288,34.7616324 Z M229.071635,29.5918254 C232.545426,32.1290809 234.345673,32.5050484 234.095638,33.265513 C234.011084,33.5226799 230.428305,31.9847703 230.094984,32.4783557 C229.442646,33.4443445 228.427723,34.5232393 227.495745,34.3847816 C226.08756,34.1755771 227.145516,32.6871948 225.122333,31.3440301 C223.09915,30.0008654 218.926666,32.5255396 218.341824,31.3440301 C218.176687,31.0104166 220.55983,28.1762905 220.276208,27.0929204 C220.03651,26.1773289 217.387122,24.6624096 217.451257,24.0779711 C217.51258,23.5191613 219.99009,24.9465569 220.276208,24.6890144 C220.644199,24.3577769 221.534495,24.6890144 221.967426,24.6890144 C223.693381,24.6890144 225.597844,27.05457 229.071635,29.5918254 Z M245.95987,79.9593489 C248.531459,78.1810968 252.339913,77.052887 257.385234,76.5747193 L262.032384,88.8198753 L254.680117,97.8783857 L252.925124,106.160879 L262.032384,99.762715 C263.346692,94.2263771 264.746508,91.2867968 266.231832,90.9439741 C267.717155,90.6011514 269.038706,92.9126219 270.196484,97.8783857 C271.872995,101.372553 272.365468,104.133384 271.673902,106.160879 C270.636553,109.20212 269.123008,108.503897 266.231832,109.501733 C263.340655,110.499568 256.047839,109.967599 252.925124,112.63167 C249.802408,115.29574 254.787377,117.048999 257.385234,117.048999 C259.98309,117.048999 266.785314,111.03459 271.673902,112.63167 C276.56249,114.228749 273.915919,120.081191 271.673902,121.717042 C269.431885,123.352893 264.53901,122.775093 257.385234,123.057164 C250.231457,123.339236 237.686331,124.397287 237.686331,123.057164 C237.686331,121.717042 242.58152,117.851714 244.521254,111.240808 C246.460987,104.629901 245.666725,105.06449 244.521254,99.762715 C243.375782,94.4609405 239.311029,93.859244 239.677114,88.8198753 C240.0432,83.7805067 242.102488,82.626727 245.95987,79.9593489 Z M259.132523,74.5646707 C259.550439,71.0107141 265.388843,71.0510968 266.945106,71.0510968 C267.982615,71.0510968 269.741571,72.8075647 272.221974,76.3205006 L274.764537,82.9123753 C273.526188,85.0609401 272.023489,86.5150668 270.256439,87.2747555 C268.489389,88.0344442 266.609763,88.0344442 264.61756,87.2747555 C260.682258,81.17067 258.853912,76.9339751 259.132523,74.5646707 Z M276.318551,86.8011202 C278.999267,88.1361179 275.254755,93.0549075 277.953818,98.1779918 C278.320875,98.8747024 282.264119,101.233457 282.683291,102.022834 C283.494306,103.550124 282.074036,106.544605 282.683291,107.609732 C284.704406,111.14314 285.211139,108.797494 284.332289,111.405252 C283.94383,112.557903 282.152331,112.042137 281.348474,112.289023 C279.785464,112.769064 279.023924,113.210012 279.023924,113.929181 C279.023924,115.018218 284.349722,112.175346 285.958844,114.716781 C287.567966,117.258216 287.040754,120.846578 284.332289,122.313172 C281.623825,123.779767 269.603504,124.897932 272.961028,122.313172 C275.199377,120.589999 276.318551,118.464315 276.318551,115.936121 C276.684223,115.168946 276.684223,114.499966 276.318551,113.929181 C275.590409,112.792608 272.961028,111.268549 272.961028,109.636207 C272.961028,105.343233 273.539148,104.626988 272.961028,101.39106 C272.382907,98.1551325 268.801563,94.3278451 269.603504,90.8430512 C270.014793,89.0558156 271.717699,88.9893519 272.961028,88.2384164 C274.14197,87.5251603 274.835095,86.0623587 276.318551,86.8011202 Z" id="Combined-Shape"></path>
                <path d="M22.0355904,16.4733649 C28.038351,13.7877694 47.8669781,23.3375678 50.0704944,24.8724251 C52.2740106,26.4072825 54.8722307,30.0694253 46.0526386,33.2024191 C37.2330465,36.3354129 28.3481351,32.0400976 26.6209908,33.2024191 C24.8938465,34.3647405 29.0870316,35.2646766 36.0530424,39.9318771 C43.0190532,44.5990775 44.716936,42.0453061 50.0704944,48.9134964 C55.4240528,55.7816866 61.6907185,63.2917846 58.1451726,68.2743255 C54.5996266,73.2568665 46.2317561,65.5674785 43.7468572,65.5674785 C41.2619583,65.5674785 39.9282987,72.4637245 36.0530424,68.2743255 C33.4695382,65.4813928 30.325521,60.3994908 26.6209908,53.0286194 C24.305429,43.5971614 22.7769622,39.5944289 22.0355904,41.0204217 C21.2942186,42.4464145 22.8226854,47.8440945 26.6209908,57.2134615 C28.8143824,64.2600023 31.9583996,69.0335833 36.0530424,71.5342046 C42.1950066,75.2851365 43.32937,68.3931323 50.0704944,71.5342046 C56.8116187,74.6752768 60.4527951,83.8850572 62.5594796,83.8850572 C64.6661641,83.8850572 58.0761069,73.6906763 62.5594796,71.5342046 C67.0428522,69.3777329 74.5549969,73.8279562 76.2255944,77.311749 C77.8961919,80.7955419 71.2137848,82.2577801 71.2137848,89.5815239 C71.2137848,96.9052676 76.2255944,96.9301809 76.2255944,104.610947 C76.2255944,112.291713 73.7947567,117.720127 71.2137848,120.016511 C63.7599435,126.648465 55.5836127,122.73603 54.4036528,123.033627 C52.0208524,123.63459 60.223484,114.60754 60.223484,108.64682 C60.223484,102.6861 58.3619158,93.1400156 54.4036528,92.3152045 C50.4453897,91.4903934 43.815054,88.5112056 41.5614842,92.3152045 C39.3079143,96.1192034 33.6912435,99.2349941 36.0530424,100.764255 C38.4148414,102.293517 41.8207401,94.6533911 46.0526386,94.6533911 C50.2845371,94.6533911 52.4197579,96.023881 54.4036528,100.764255 C56.3875476,105.50463 56.6651249,108.576948 54.4036528,114.60754 C52.1421806,120.638133 53.1875506,120.471814 46.0526386,123.033627 C38.9177266,125.595439 35.3864027,123.033627 30.9361319,123.033627 C26.4858612,123.033627 20.4177137,125.436875 16.0328298,120.016511 C13.51478,115.79375 16.3072344,111.463173 16.0328298,108.64682 C15.6861277,105.088441 14.5058557,101.912943 19.6433046,98.480386 C24.7807535,95.047829 34.4667897,97.9737715 30.9361319,94.6533911 C27.4054742,91.3330108 19.1236356,98.2498859 16.0328298,94.6533911 C12.942024,91.0568963 17.4323665,87.7230996 16.0328298,77.311749 C14.6332931,66.9003984 11,62.1860674 11,57.2134615 C11,52.2408556 16.0328298,56.1467953 16.0328298,48.9134964 C16.0328298,41.6801975 11,37.9858418 11,33.2024191 C11,28.4189964 11.9719152,26.5036553 14.8667061,22.1153886 C15.6828101,20.8782416 27.9023741,24.052849 28.1272643,23.203489 C28.700079,21.0400965 17.7251376,18.4018331 22.0355904,16.4733649 Z M58.4606447,32.8938879 C63.3710149,35.7951846 59.8234074,45.1757866 68.4368565,52.2367685 C77.0503056,59.2977504 88.5533336,55.7842807 95.4617569,63.2260091 C102.37018,70.6677375 89.3900751,70.8899477 86.7279348,71.9398516 C83.9838012,73.0220923 82.0004421,77.5544584 79.0655605,77.0338094 C76.3307423,76.5486516 75.3672867,72.5990239 73.8804711,71.9398516 C71.4784418,70.8749237 69.1737782,70.2317268 67.4724384,68.6556029 C66.8871128,68.1133563 61.958352,69.3655983 61.1003927,68.6556029 C60.1149786,67.8401336 62.6856649,63.9566329 62.0718876,63.2260091 C59.6365253,60.3270204 59.4640693,57.7030825 56.2967278,52.2367685 C52.3311304,45.3927951 51.8299152,45.3610973 48.8363667,43.1459396 C41.7222627,37.8816647 37.9655238,36.8697879 42.4286362,36.8697879 C51.9403588,36.8697879 53.5502745,29.9925912 58.4606447,32.8938879 Z M63.4322877,34.7616324 C64.6642005,32.8608381 67.8659848,33.849954 73.0376404,37.7289799 L81.9149498,45.8852219 L88.8231175,57.0088115 L74.3808424,53.4935289 L66.7934635,47.3635051 C63.3207668,40.8630509 62.2003748,36.6624266 63.4322877,34.7616324 Z M63.0716349,29.5918254 C66.5454256,32.1290809 68.3456735,32.5050484 68.0956382,33.265513 C68.0110835,33.5226799 64.4283049,31.9847703 64.0949839,32.4783557 C63.4426462,33.4443445 62.4277232,34.5232393 61.4957453,34.3847816 C60.0875604,34.1755771 61.1455157,32.6871948 59.1223328,31.3440301 C57.0991499,30.0008654 52.9266658,32.5255396 52.3418245,31.3440301 C52.1766875,31.0104166 54.5598304,28.1762905 54.2762084,27.0929204 C54.0365103,26.1773289 51.3871223,24.6624096 51.4512573,24.0779711 C51.5125798,23.5191613 53.9900898,24.9465569 54.2762084,24.6890144 C54.6441991,24.3577769 55.5344954,24.6890144 55.9674261,24.6890144 C57.6933814,24.6890144 59.5978442,27.05457 63.0716349,29.5918254 Z M79.9598704,79.9593489 C82.5314586,78.1810968 86.3399131,77.052887 91.3852336,76.5747193 L96.0323838,88.8198753 L88.6801167,97.8783857 L86.9251236,106.160879 L96.0323838,99.762715 C97.3466918,94.2263771 98.7465078,91.2867968 100.231832,90.9439741 C101.717155,90.6011514 103.038706,92.9126219 104.196484,97.8783857 C105.872995,101.372553 106.365468,104.133384 105.673902,106.160879 C104.636553,109.20212 103.123008,108.503897 100.231832,109.501733 C97.3406551,110.499568 90.0478389,109.967599 86.9251236,112.63167 C83.8024083,115.29574 88.7873775,117.048999 91.3852336,117.048999 C93.9830898,117.048999 100.785314,111.03459 105.673902,112.63167 C110.56249,114.228749 107.915919,120.081191 105.673902,121.717042 C103.431885,123.352893 98.5390101,122.775093 91.3852336,123.057164 C84.2314572,123.339236 71.6863314,124.397287 71.6863314,123.057164 C71.6863314,121.717042 76.5815198,117.851714 78.5212536,111.240808 C80.4609873,104.629901 79.6667248,105.06449 78.5212536,99.762715 C77.3757823,94.4609405 73.3110292,93.859244 73.6771144,88.8198753 C74.0431997,83.7805067 76.102488,82.626727 79.9598704,79.9593489 Z M93.1325228,74.5646707 C93.5504387,71.0107141 99.3888431,71.0510968 100.945106,71.0510968 C101.982615,71.0510968 103.741571,72.8075647 106.221974,76.3205006 L108.764537,82.9123753 C107.526188,85.0609401 106.023489,86.5150668 104.256439,87.2747555 C102.489389,88.0344442 100.609763,88.0344442 98.6175602,87.2747555 C94.682258,81.17067 92.8539122,76.9339751 93.1325228,74.5646707 Z M110.318551,86.8011202 C112.999267,88.1361179 109.254755,93.0549075 111.953818,98.1779918 C112.320875,98.8747024 116.264119,101.233457 116.683291,102.022834 C117.494306,103.550124 116.074036,106.544605 116.683291,107.609732 C118.704406,111.14314 119.211139,108.797494 118.332289,111.405252 C117.94383,112.557903 116.152331,112.042137 115.348474,112.289023 C113.785464,112.769064 113.023924,113.210012 113.023924,113.929181 C113.023924,115.018218 118.349722,112.175346 119.958844,114.716781 C121.567966,117.258216 121.040754,120.846578 118.332289,122.313172 C115.623825,123.779767 103.603504,124.897932 106.961028,122.313172 C109.199377,120.589999 110.318551,118.464315 110.318551,115.936121 C110.684223,115.168946 110.684223,114.499966 110.318551,113.929181 C109.590409,112.792608 106.961028,111.268549 106.961028,109.636207 C106.961028,105.343233 107.539148,104.626988 106.961028,101.39106 C106.382907,98.1551325 102.801563,94.3278451 103.603504,90.8430512 C104.014793,89.0558156 105.717699,88.9893519 106.961028,88.2384164 C108.14197,87.5251603 108.835095,86.0623587 110.318551,86.8011202 Z" id="Combined-Shape" transform="translate(65.932736, 70.086105) scale(-1, 1) translate(-65.932736, -70.086105) "></path>
                <path d="M188.03559,192.473365 C194.038351,189.787769 213.866978,199.337568 216.070494,200.872425 C218.274011,202.407282 220.872231,206.069425 212.052639,209.202419 C203.233047,212.335413 194.348135,208.040098 192.620991,209.202419 C190.893847,210.364741 195.087032,211.264677 202.053042,215.931877 C209.019053,220.599078 210.716936,218.045306 216.070494,224.913496 C221.424053,231.781687 227.690719,239.291785 224.145173,244.274326 C220.599627,249.256866 212.231756,241.567479 209.746857,241.567479 C207.261958,241.567479 205.928299,248.463725 202.053042,244.274326 C199.469538,241.481393 196.325521,236.399491 192.620991,229.028619 C190.305429,219.597161 188.776962,215.594429 188.03559,217.020422 C187.294219,218.446415 188.822685,223.844094 192.620991,233.213462 C194.814382,240.260002 197.9584,245.033583 202.053042,247.534205 C208.195007,251.285136 209.32937,244.393132 216.070494,247.534205 C222.811619,250.675277 226.452795,259.885057 228.55948,259.885057 C230.666164,259.885057 224.076107,249.690676 228.55948,247.534205 C233.042852,245.377733 240.554997,249.827956 242.225594,253.311749 C243.896192,256.795542 237.213785,258.25778 237.213785,265.581524 C237.213785,272.905268 242.225594,272.930181 242.225594,280.610947 C242.225594,288.291713 239.794757,293.720127 237.213785,296.016511 C229.759943,302.648465 221.583613,298.73603 220.403653,299.033627 C218.020852,299.63459 226.223484,290.60754 226.223484,284.64682 C226.223484,278.6861 224.361916,269.140016 220.403653,268.315204 C216.44539,267.490393 209.815054,264.511206 207.561484,268.315204 C205.307914,272.119203 199.691243,275.234994 202.053042,276.764255 C204.414841,278.293517 207.82074,270.653391 212.052639,270.653391 C216.284537,270.653391 218.419758,272.023881 220.403653,276.764255 C222.387548,281.50463 222.665125,284.576948 220.403653,290.60754 C218.142181,296.638133 219.187551,296.471814 212.052639,299.033627 C204.917727,301.595439 201.386403,299.033627 196.936132,299.033627 C192.485861,299.033627 186.417714,301.436875 182.03283,296.016511 C179.51478,291.79375 182.307234,287.463173 182.03283,284.64682 C181.686128,281.088441 180.505856,277.912943 185.643305,274.480386 C190.780754,271.047829 200.46679,273.973771 196.936132,270.653391 C193.405474,267.333011 185.123636,274.249886 182.03283,270.653391 C178.942024,267.056896 183.432367,263.7231 182.03283,253.311749 C180.633293,242.900398 177,238.186067 177,233.213462 C177,228.240856 182.03283,232.146795 182.03283,224.913496 C182.03283,217.680197 177,213.985842 177,209.202419 C177,204.418996 177.971915,202.503655 180.866706,198.115389 C181.68281,196.878242 193.902374,200.052849 194.127264,199.203489 C194.700079,197.040097 183.725138,194.401833 188.03559,192.473365 Z M224.460645,208.893888 C229.371015,211.795185 225.823407,221.175787 234.436856,228.236769 C243.050306,235.29775 254.553334,231.784281 261.461757,239.226009 C268.37018,246.667737 255.390075,246.889948 252.727935,247.939852 C249.983801,249.022092 248.000442,253.554458 245.065561,253.033809 C242.330742,252.548652 241.367287,248.599024 239.880471,247.939852 C237.478442,246.874924 235.173778,246.231727 233.472438,244.655603 C232.887113,244.113356 227.958352,245.365598 227.100393,244.655603 C226.114979,243.840134 228.685665,239.956633 228.071888,239.226009 C225.636525,236.32702 225.464069,233.703082 222.296728,228.236769 C218.33113,221.392795 217.829915,221.361097 214.836367,219.14594 C207.722263,213.881665 203.965524,212.869788 208.428636,212.869788 C217.940359,212.869788 219.550274,205.992591 224.460645,208.893888 Z M229.432288,210.761632 C230.664201,208.860838 233.865985,209.849954 239.03764,213.72898 L247.91495,221.885222 L254.823117,233.008811 L240.380842,229.493529 L232.793464,223.363505 C229.320767,216.863051 228.200375,212.662427 229.432288,210.761632 Z M229.071635,205.591825 C232.545426,208.129081 234.345673,208.505048 234.095638,209.265513 C234.011084,209.52268 230.428305,207.98477 230.094984,208.478356 C229.442646,209.444344 228.427723,210.523239 227.495745,210.384782 C226.08756,210.175577 227.145516,208.687195 225.122333,207.34403 C223.09915,206.000865 218.926666,208.52554 218.341824,207.34403 C218.176687,207.010417 220.55983,204.17629 220.276208,203.09292 C220.03651,202.177329 217.387122,200.66241 217.451257,200.077971 C217.51258,199.519161 219.99009,200.946557 220.276208,200.689014 C220.644199,200.357777 221.534495,200.689014 221.967426,200.689014 C223.693381,200.689014 225.597844,203.05457 229.071635,205.591825 Z M245.95987,255.959349 C248.531459,254.181097 252.339913,253.052887 257.385234,252.574719 L262.032384,264.819875 L254.680117,273.878386 L252.925124,282.160879 L262.032384,275.762715 C263.346692,270.226377 264.746508,267.286797 266.231832,266.943974 C267.717155,266.601151 269.038706,268.912622 270.196484,273.878386 C271.872995,277.372553 272.365468,280.133384 271.673902,282.160879 C270.636553,285.20212 269.123008,284.503897 266.231832,285.501733 C263.340655,286.499568 256.047839,285.967599 252.925124,288.63167 C249.802408,291.29574 254.787377,293.048999 257.385234,293.048999 C259.98309,293.048999 266.785314,287.03459 271.673902,288.63167 C276.56249,290.228749 273.915919,296.081191 271.673902,297.717042 C269.431885,299.352893 264.53901,298.775093 257.385234,299.057164 C250.231457,299.339236 237.686331,300.397287 237.686331,299.057164 C237.686331,297.717042 242.58152,293.851714 244.521254,287.240808 C246.460987,280.629901 245.666725,281.06449 244.521254,275.762715 C243.375782,270.46094 239.311029,269.859244 239.677114,264.819875 C240.0432,259.780507 242.102488,258.626727 245.95987,255.959349 Z M259.132523,250.564671 C259.550439,247.010714 265.388843,247.051097 266.945106,247.051097 C267.982615,247.051097 269.741571,248.807565 272.221974,252.320501 L274.764537,258.912375 C273.526188,261.06094 272.023489,262.515067 270.256439,263.274755 C268.489389,264.034444 266.609763,264.034444 264.61756,263.274755 C260.682258,257.17067 258.853912,252.933975 259.132523,250.564671 Z M276.318551,262.80112 C278.999267,264.136118 275.254755,269.054907 277.953818,274.177992 C278.320875,274.874702 282.264119,277.233457 282.683291,278.022834 C283.494306,279.550124 282.074036,282.544605 282.683291,283.609732 C284.704406,287.14314 285.211139,284.797494 284.332289,287.405252 C283.94383,288.557903 282.152331,288.042137 281.348474,288.289023 C279.785464,288.769064 279.023924,289.210012 279.023924,289.929181 C279.023924,291.018218 284.349722,288.175346 285.958844,290.716781 C287.567966,293.258216 287.040754,296.846578 284.332289,298.313172 C281.623825,299.779767 269.603504,300.897932 272.961028,298.313172 C275.199377,296.589999 276.318551,294.464315 276.318551,291.936121 C276.684223,291.168946 276.684223,290.499966 276.318551,289.929181 C275.590409,288.792608 272.961028,287.268549 272.961028,285.636207 C272.961028,281.343233 273.539148,280.626988 272.961028,277.39106 C272.382907,274.155133 268.801563,270.327845 269.603504,266.843051 C270.014793,265.055816 271.717699,264.989352 272.961028,264.238416 C274.14197,263.52516 274.835095,262.062359 276.318551,262.80112 Z" id="Combined-Shape" transform="translate(231.932736, 246.086105) scale(1, -1) translate(-231.932736, -246.086105) "></path>
                <path d="M22.0355904,192.473365 C28.038351,189.787769 47.8669781,199.337568 50.0704944,200.872425 C52.2740106,202.407282 54.8722307,206.069425 46.0526386,209.202419 C37.2330465,212.335413 28.3481351,208.040098 26.6209908,209.202419 C24.8938465,210.364741 29.0870316,211.264677 36.0530424,215.931877 C43.0190532,220.599078 44.716936,218.045306 50.0704944,224.913496 C55.4240528,231.781687 61.6907185,239.291785 58.1451726,244.274326 C54.5996266,249.256866 46.2317561,241.567479 43.7468572,241.567479 C41.2619583,241.567479 39.9282987,248.463725 36.0530424,244.274326 C33.4695382,241.481393 30.325521,236.399491 26.6209908,229.028619 C24.305429,219.597161 22.7769622,215.594429 22.0355904,217.020422 C21.2942186,218.446415 22.8226854,223.844094 26.6209908,233.213462 C28.8143824,240.260002 31.9583996,245.033583 36.0530424,247.534205 C42.1950066,251.285136 43.32937,244.393132 50.0704944,247.534205 C56.8116187,250.675277 60.4527951,259.885057 62.5594796,259.885057 C64.6661641,259.885057 58.0761069,249.690676 62.5594796,247.534205 C67.0428522,245.377733 74.5549969,249.827956 76.2255944,253.311749 C77.8961919,256.795542 71.2137848,258.25778 71.2137848,265.581524 C71.2137848,272.905268 76.2255944,272.930181 76.2255944,280.610947 C76.2255944,288.291713 73.7947567,293.720127 71.2137848,296.016511 C63.7599435,302.648465 55.5836127,298.73603 54.4036528,299.033627 C52.0208524,299.63459 60.223484,290.60754 60.223484,284.64682 C60.223484,278.6861 58.3619158,269.140016 54.4036528,268.315204 C50.4453897,267.490393 43.815054,264.511206 41.5614842,268.315204 C39.3079143,272.119203 33.6912435,275.234994 36.0530424,276.764255 C38.4148414,278.293517 41.8207401,270.653391 46.0526386,270.653391 C50.2845371,270.653391 52.4197579,272.023881 54.4036528,276.764255 C56.3875476,281.50463 56.6651249,284.576948 54.4036528,290.60754 C52.1421806,296.638133 53.1875506,296.471814 46.0526386,299.033627 C38.9177266,301.595439 35.3864027,299.033627 30.9361319,299.033627 C26.4858612,299.033627 20.4177137,301.436875 16.0328298,296.016511 C13.51478,291.79375 16.3072344,287.463173 16.0328298,284.64682 C15.6861277,281.088441 14.5058557,277.912943 19.6433046,274.480386 C24.7807535,271.047829 34.4667897,273.973771 30.9361319,270.653391 C27.4054742,267.333011 19.1236356,274.249886 16.0328298,270.653391 C12.942024,267.056896 17.4323665,263.7231 16.0328298,253.311749 C14.6332931,242.900398 11,238.186067 11,233.213462 C11,228.240856 16.0328298,232.146795 16.0328298,224.913496 C16.0328298,217.680197 11,213.985842 11,209.202419 C11,204.418996 11.9719152,202.503655 14.8667061,198.115389 C15.6828101,196.878242 27.9023741,200.052849 28.1272643,199.203489 C28.700079,197.040097 17.7251376,194.401833 22.0355904,192.473365 Z M58.4606447,208.893888 C63.3710149,211.795185 59.8234074,221.175787 68.4368565,228.236769 C77.0503056,235.29775 88.5533336,231.784281 95.4617569,239.226009 C102.37018,246.667737 89.3900751,246.889948 86.7279348,247.939852 C83.9838012,249.022092 82.0004421,253.554458 79.0655605,253.033809 C76.3307423,252.548652 75.3672867,248.599024 73.8804711,247.939852 C71.4784418,246.874924 69.1737782,246.231727 67.4724384,244.655603 C66.8871128,244.113356 61.958352,245.365598 61.1003927,244.655603 C60.1149786,243.840134 62.6856649,239.956633 62.0718876,239.226009 C59.6365253,236.32702 59.4640693,233.703082 56.2967278,228.236769 C52.3311304,221.392795 51.8299152,221.361097 48.8363667,219.14594 C41.7222627,213.881665 37.9655238,212.869788 42.4286362,212.869788 C51.9403588,212.869788 53.5502745,205.992591 58.4606447,208.893888 Z M63.4322877,210.761632 C64.6642005,208.860838 67.8659848,209.849954 73.0376404,213.72898 L81.9149498,221.885222 L88.8231175,233.008811 L74.3808424,229.493529 L66.7934635,223.363505 C63.3207668,216.863051 62.2003748,212.662427 63.4322877,210.761632 Z M63.0716349,205.591825 C66.5454256,208.129081 68.3456735,208.505048 68.0956382,209.265513 C68.0110835,209.52268 64.4283049,207.98477 64.0949839,208.478356 C63.4426462,209.444344 62.4277232,210.523239 61.4957453,210.384782 C60.0875604,210.175577 61.1455157,208.687195 59.1223328,207.34403 C57.0991499,206.000865 52.9266658,208.52554 52.3418245,207.34403 C52.1766875,207.010417 54.5598304,204.17629 54.2762084,203.09292 C54.0365103,202.177329 51.3871223,200.66241 51.4512573,200.077971 C51.5125798,199.519161 53.9900898,200.946557 54.2762084,200.689014 C54.6441991,200.357777 55.5344954,200.689014 55.9674261,200.689014 C57.6933814,200.689014 59.5978442,203.05457 63.0716349,205.591825 Z M79.9598704,255.959349 C82.5314586,254.181097 86.3399131,253.052887 91.3852336,252.574719 L96.0323838,264.819875 L88.6801167,273.878386 L86.9251236,282.160879 L96.0323838,275.762715 C97.3466918,270.226377 98.7465078,267.286797 100.231832,266.943974 C101.717155,266.601151 103.038706,268.912622 104.196484,273.878386 C105.872995,277.372553 106.365468,280.133384 105.673902,282.160879 C104.636553,285.20212 103.123008,284.503897 100.231832,285.501733 C97.3406551,286.499568 90.0478389,285.967599 86.9251236,288.63167 C83.8024083,291.29574 88.7873775,293.048999 91.3852336,293.048999 C93.9830898,293.048999 100.785314,287.03459 105.673902,288.63167 C110.56249,290.228749 107.915919,296.081191 105.673902,297.717042 C103.431885,299.352893 98.5390101,298.775093 91.3852336,299.057164 C84.2314572,299.339236 71.6863314,300.397287 71.6863314,299.057164 C71.6863314,297.717042 76.5815198,293.851714 78.5212536,287.240808 C80.4609873,280.629901 79.6667248,281.06449 78.5212536,275.762715 C77.3757823,270.46094 73.3110292,269.859244 73.6771144,264.819875 C74.0431997,259.780507 76.102488,258.626727 79.9598704,255.959349 Z M93.1325228,250.564671 C93.5504387,247.010714 99.3888431,247.051097 100.945106,247.051097 C101.982615,247.051097 103.741571,248.807565 106.221974,252.320501 L108.764537,258.912375 C107.526188,261.06094 106.023489,262.515067 104.256439,263.274755 C102.489389,264.034444 100.609763,264.034444 98.6175602,263.274755 C94.682258,257.17067 92.8539122,252.933975 93.1325228,250.564671 Z M110.318551,262.80112 C112.999267,264.136118 109.254755,269.054907 111.953818,274.177992 C112.320875,274.874702 116.264119,277.233457 116.683291,278.022834 C117.494306,279.550124 116.074036,282.544605 116.683291,283.609732 C118.704406,287.14314 119.211139,284.797494 118.332289,287.405252 C117.94383,288.557903 116.152331,288.042137 115.348474,288.289023 C113.785464,288.769064 113.023924,289.210012 113.023924,289.929181 C113.023924,291.018218 118.349722,288.175346 119.958844,290.716781 C121.567966,293.258216 121.040754,296.846578 118.332289,298.313172 C115.623825,299.779767 103.603504,300.897932 106.961028,298.313172 C109.199377,296.589999 110.318551,294.464315 110.318551,291.936121 C110.684223,291.168946 110.684223,290.499966 110.318551,289.929181 C109.590409,288.792608 106.961028,287.268549 106.961028,285.636207 C106.961028,281.343233 107.539148,280.626988 106.961028,277.39106 C106.382907,274.155133 102.801563,270.327845 103.603504,266.843051 C104.014793,265.055816 105.717699,264.989352 106.961028,264.238416 C108.14197,263.52516 108.835095,262.062359 110.318551,262.80112 Z" id="Combined-Shape" transform="translate(65.932736, 246.086105) scale(-1, -1) translate(-65.932736, -246.086105) "></path>
            </g>
            <rect id="Rectangle-5" fill="#DCA92C" transform="translate(260.500000, 252.000000) rotate(90.000000) translate(-260.500000, -252.000000) " x="256.5" y="75.5" width="8" height="353" rx="4"></rect>
            <rect id="Rectangle-5" fill="#DCA92C" x="256" y="76" width="8" height="353" rx="4"></rect>
        </g>
    </g>
</svg>