<?xml version="1.0" encoding="UTF-8"?>
<svg width="300px" height="300px" viewBox="0 0 300 300" version="1.1" xmlns="http://www.w3.org/2000/svg" xmlns:xlink="http://www.w3.org/1999/xlink">
    <!-- Generator: Sketch 50.2 (55047) - http://www.bohemiancoding.com/sketch -->
    <title>battlev2</title>
    <desc>Created with Sketch.</desc>
    <defs>
        <radialGradient cx="50%" cy="50%" fx="50%" fy="50%" r="50%" id="radialGradient-1">
            <stop stop-color="#FFFFFF" offset="0%"></stop>
            <stop stop-color="#EDF7FE" offset="100%"></stop>
        </radialGradient>
        <radialGradient cx="50%" cy="51.7214674%" fx="50%" fy="51.7214674%" r="68.2846796%" id="radialGradient-2">
            <stop stop-color="#FFFFFF" offset="0%"></stop>
            <stop stop-color="#FEF4D7" offset="100%"></stop>
        </radialGradient>
    </defs>
    <g id="Page-1" stroke="none" stroke-width="1" fill="none" fill-rule="evenodd">
        <g id="battlev2">
            <rect id="Rectangle" fill="url(#radialGradient-1)" fill-rule="nonzero" x="0" y="0" width="300" height="300" rx="32"></rect>
            <rect id="Rectangle" fill="url(#radialGradient-2)" x="0" y="0" width="300" height="300" rx="32"></rect>
            <g id="Combined-Shape" transform="translate(38.000000, 26.000000)" fill="#E14834" fill-rule="nonzero">
                <path d="M19.327619,56.6333334 L19.327619,22.864762 L32.1790868,14.5342857 C32.1819048,20.8971428 31.8809524,48.7580952 26.5885714,56.6333334 L19.327619,56.6333334 Z M31.7580952,13.1057143 L18.6133333,21.6257142 C16.68,20.372381 8.06095238,14.7857143 5.46857142,13.1057143 C7.86095238,10.7209524 16.44,2.16666666 18.6133333,0 L31.7580952,13.1057143 Z M15.0571429,76.7409524 L15.0561905,76.7409524 L15.0561905,75.32 L22.167619,75.32 L22.167619,76.7409524 C22.167619,78.1133334 21.0514286,79.2295238 19.68,79.2295238 L17.5447619,79.2295238 C16.1733333,79.2295238 15.0571429,78.1133334 15.0571429,76.7409524 Z M15.0571429,71.4066666 L22.1685714,71.4066666 L22.1685714,73.892381 L15.0571429,73.892381 L15.0571429,71.4066666 Z M17.8990476,56.6333334 L10.6371429,56.6333334 C5.34666666,48.7590476 5.0447619,20.8971428 5.04758005,14.5342857 C13.752381,20.1771428 16.7866667,22.1419048 17.8990476,22.824762 L17.8990476,56.6333334 Z M3.31333334,59.3914286 C1.85047619,59.3914286 0.527619048,58.8219048 0,58.0619048 L37.227619,58.0619048 C36.7,58.8219048 35.3761904,59.3914286 33.9142858,59.3914286 L3.31333334,59.3914286 Z M15.0571429,60.82 L22.1685714,60.82 L22.1685714,66.0628572 L15.0571429,66.0628572 L15.0571429,60.82 Z M15.0571429,67.4914286 L22.1685714,67.4914286 L22.1685714,69.9771428 L15.0571429,69.9771428 L15.0571429,67.4914286 Z" id="Shape"></path>
                <path d="M215.761904,57.1657142 L215.761904,23.3971428 L228.613373,15.0666667 C228.61619,21.4295238 228.315238,49.2904762 223.022858,57.1657142 L215.761904,57.1657142 Z M228.19238,13.6380952 L215.04762,22.1580952 C213.114286,20.904762 204.495238,15.3180952 201.902858,13.6380952 C204.295238,11.2533333 212.874286,2.69904762 215.04762,0.532380952 L228.19238,13.6380952 Z M211.491428,77.2733334 L211.490476,77.2733334 L211.490476,75.852381 L218.601904,75.852381 L218.601904,77.2733334 C218.601904,78.6457142 217.485714,79.7619048 216.114286,79.7619048 L213.979048,79.7619048 C212.60762,79.7619048 211.491428,78.6457142 211.491428,77.2733334 Z M211.491428,71.9390476 L218.602858,71.9390476 L218.602858,74.424762 L211.491428,74.424762 L211.491428,71.9390476 Z M214.333334,57.1657142 L207.071428,57.1657142 C201.780952,49.2914286 201.479048,21.4295238 201.481867,15.0666667 C210.186666,20.7095238 213.220952,22.6742858 214.333334,23.3571428 L214.333334,57.1657142 Z M199.747619,59.9238096 C198.284762,59.9238096 196.961905,59.3542858 196.434286,58.5942858 L233.661904,58.5942858 C233.134286,59.3542858 231.810476,59.9238096 230.348572,59.9238096 L199.747619,59.9238096 Z M211.491428,61.352381 L218.602858,61.352381 L218.602858,66.595238 L211.491428,66.595238 L211.491428,61.352381 Z M211.491428,68.0238096 L218.602858,68.0238096 L218.602858,70.5095238 L211.491428,70.5095238 L211.491428,68.0238096 Z" id="Shape"></path>
            </g>
            <g id="Group-7" transform="translate(136.000000, 66.000000)" fill-rule="nonzero">
                <circle id="Oval" stroke="#DCA92C" stroke-width="3" fill="#F8D61C" cx="20" cy="20" r="20"></circle>
                <circle id="Oval-2" fill="#FFF5BE" cx="20" cy="20" r="8"></circle>
            </g>
            <path d="M135.364143,155.344693 C138.502914,156.748959 130.511218,158.67008 130.928328,160.245412 C131.092088,160.863896 139.990089,158.552221 140.584357,159.453083 C142.692276,162.648516 143.400002,164.043223 143.400002,167.526399 C143.400002,171.009576 139.735213,173.699719 139.735213,178.966838 C139.735213,184.233957 143.400002,181.389743 143.400002,185.010679 C143.400002,188.631614 140.754322,192.064479 139.735213,199.645781 C138.716103,207.227083 141.985865,209.654676 139.735213,212.27356 C137.48456,214.892443 131.453919,209.855736 128.882977,212.27356 C126.312034,214.691383 133.365179,212.56078 137.106149,215.060288 C140.847119,217.559795 139.987673,219.872119 139.735213,222.463247 C139.535398,224.514049 141.568798,227.667474 139.735213,230.74239 C136.542243,234.689372 134.168911,236.022963 130.928328,236.022963 C127.687745,236.022963 123.070966,234.804835 117.87549,232.939383 C112.680014,231.073931 113.441228,231.19504 111.794477,226.803704 C110.147726,222.412368 110.349851,220.175178 111.794477,216.723348 C113.239103,213.271518 114.793921,212.27356 117.87549,212.27356 C120.95706,212.27356 123.437155,217.83692 125.156962,216.723348 C126.876769,215.609776 122.786841,213.34093 121.145844,210.570947 C119.504847,207.800964 114.676791,209.970339 111.794477,210.570947 C108.912162,211.171555 107.556612,218.12279 107.556612,222.463247 C107.556612,226.803704 113.529576,233.37699 111.794477,232.939383 C110.935258,232.72268 104.981445,235.571624 99.553732,230.74239 C97.6743286,229.070217 95.9042495,225.117373 95.9042495,219.524419 C95.9042495,213.931465 99.553732,213.913323 99.553732,208.580344 C99.553732,203.247366 94.6877594,202.182598 95.9042495,199.645781 C97.1207395,197.108965 102.590908,193.868416 105.855595,195.438709 C109.120282,197.009001 104.321556,204.432311 105.855595,204.432311 C107.389633,204.432311 110.041052,197.725964 114.949781,195.438709 C119.858511,193.151453 120.684527,198.17005 125.156962,195.438709 C128.138585,193.617815 130.427985,190.141805 132.025161,185.010679 C134.790999,178.188125 135.903992,174.25766 135.364143,173.219286 C134.824293,172.180911 133.711299,175.095607 132.025161,181.963374 C129.327609,187.330671 127.038209,191.031193 125.156962,193.064941 C122.335091,196.115563 121.363951,191.093878 119.554506,191.093878 C117.745061,191.093878 111.651773,196.693111 109.06999,193.064941 C106.488206,189.436771 111.051445,183.968094 114.949781,178.966838 C118.848117,173.965583 120.084476,175.825179 125.156962,172.426633 C130.229448,169.028087 133.282827,168.372774 132.025161,167.526399 C130.767495,166.680024 124.297711,169.807772 117.87549,167.526399 C111.453269,165.245026 113.345232,162.57834 114.949781,161.460692 C116.55433,160.343045 130.993073,153.389105 135.364143,155.344693 Z M108.84027,167.301734 C112.415887,165.189078 113.58819,170.196891 120.514404,170.196891 C123.764338,170.196891 121.028768,170.933716 115.848444,174.767038 C113.668612,176.380064 113.303639,176.403146 110.415984,181.386767 C108.1096,185.367209 107.984022,187.277899 106.210648,189.388875 C105.763709,189.920898 107.635623,192.748773 106.918068,193.342578 C106.293322,193.85958 102.704313,192.947727 102.278093,193.342578 C101.039217,194.490275 99.361015,194.958636 97.6119134,195.734091 C96.529249,196.214085 95.8276833,199.090112 93.8362526,199.443392 C91.6991404,199.822517 90.2549048,196.522154 88.2566909,195.734091 C86.3181826,194.969576 76.8663737,194.807768 81.8969259,189.388875 C86.9274781,183.969983 95.3037141,186.528409 101.575826,181.386767 C107.847938,176.245125 105.264654,169.41439 108.84027,167.301734 Z M105.220036,168.661782 C106.117086,170.045896 105.301243,173.104692 102.772507,177.838171 L97.2475547,182.301911 L86.7310279,184.861657 L91.761394,176.76172 L98.225643,170.822535 C101.991522,167.997919 104.322986,167.277668 105.220036,168.661782 Z M105.482655,164.897249 C108.012188,163.049679 109.398973,161.327137 110.655774,161.327137 C110.971024,161.327137 111.619317,161.085938 111.887279,161.327137 C112.095624,161.514673 113.899689,160.475277 113.944342,160.88219 C113.991044,161.307764 112.061821,162.410893 111.887279,163.077605 C111.680752,163.86649 113.416101,165.930234 113.295852,166.173164 C112.869984,167.033511 109.831679,165.195103 108.358444,166.173164 C106.88521,167.151225 107.655588,168.23503 106.630181,168.387368 C105.951537,168.48819 105.212493,167.702564 104.737476,166.999153 C104.49476,166.639736 101.885864,167.759606 101.824293,167.572343 C101.642224,167.01859 102.953122,166.744819 105.482655,164.897249 Z M93.1850371,201.573702 C95.9938927,203.516024 97.4934183,204.356179 97.759993,208.02573 C98.0265677,211.69528 95.0667096,212.133421 94.2326042,215.99405 C93.3984988,219.854678 92.8201354,219.538221 94.2326042,224.352128 C95.6450729,229.166036 99.2096346,231.980677 99.2096346,232.956523 C99.2096346,233.334211 99.4965431,236.182896 97.759993,236.171409 C95.0097607,236.153216 89.3818398,233.082424 86.1887843,232.956523 C80.9795716,232.751125 78.9131667,236.416431 77.2805827,235.225243 C75.6479987,234.034054 70.9009252,226.527877 74.4606808,225.364921 C78.0204363,224.201965 82.9736567,228.581517 84.8653548,228.581517 C86.7570529,228.581517 90.3869908,227.304835 88.1131026,225.364921 C85.8392144,223.425007 80.5287562,223.812375 78.4234692,223.085775 C76.3181821,222.359174 75.216054,222.867604 74.4606808,220.653043 C73.9570986,219.176669 74.3157056,217.166296 75.5365017,214.621925 C76.3795686,211.005972 77.3418911,209.322813 78.4234692,209.572449 C79.5050472,209.822084 80.5243604,211.962618 81.4814088,215.99405 L88.1131026,220.653043 L86.8351577,214.621925 L81.4814088,208.02573 L84.8653548,199.109094 C88.5392392,199.457284 91.3124667,200.27882 93.1850371,201.573702 Z M83.5930197,197.645423 C83.7958974,199.370695 82.4645388,202.455757 79.5989438,206.90061 C78.1482683,207.453797 76.7795683,207.453797 75.4928439,206.90061 C74.2061195,206.347422 73.1118891,205.288561 72.2101526,203.724026 L74.0615876,198.923977 C75.8677593,196.36594 77.1485898,195.086921 77.9040793,195.086921 C79.0373136,195.086921 83.2887031,195.057515 83.5930197,197.645423 Z M71.0785559,206.55572 C72.1587737,206.017771 72.6634914,207.082949 73.523426,207.602325 C74.4287886,208.149139 75.6688049,208.197536 75.9682961,209.498959 C76.552251,212.036504 73.9443996,214.823446 73.523426,217.179773 C73.1024524,219.5361 73.523426,220.057652 73.523426,223.183695 C73.523426,224.372329 72.6899872,225.482113 72.1597708,226.309739 C71.8934969,226.725371 71.8934969,227.332918 72.1597708,228.13238 C72.419059,230.780247 73.3636598,232.731567 74.9935731,233.986342 C76.1303249,234.86146 74.6230244,237.504369 72.1597708,236.672883 C70.9172833,236.253475 67.5780201,235.202727 66.4439015,234.433099 C64.9906592,233.446908 64.8975613,233.345761 64.304865,233.024825 C62.3326244,231.956885 62.886995,228.733864 64.05872,226.88325 C65.230445,225.032637 69.1085666,227.10275 69.1085666,226.309739 C69.1085666,225.786057 68.5540309,225.464968 67.4158836,225.115414 C66.8305338,224.935638 65.526006,225.311206 65.2431392,224.471873 C64.6031813,222.572965 64.9721725,224.281009 66.4439015,221.708064 C66.8875463,220.932463 65.8533393,218.751952 66.4439015,217.639815 C66.7491325,217.06501 69.6205103,215.34742 69.8877929,214.840091 C71.8531871,211.109581 69.1265211,207.527834 71.0785559,206.55572 Z" id="Combined-Shape" fill="#727289"></path>
            <path d="M240.362816,155.344687 C243.50153,156.748927 235.50998,158.670013 235.927083,160.245316 C236.09084,160.863789 244.988677,158.552156 245.582934,159.453001 C247.690815,162.648376 248.398528,164.043057 248.398528,167.52617 C248.398528,171.009282 244.733806,173.699376 244.733806,178.966399 C244.733806,184.233421 248.398528,181.38926 248.398528,185.010128 C248.398528,188.630997 245.752897,192.0638 244.733806,199.644963 C243.714715,207.226126 246.984417,209.653674 244.733806,212.27251 C242.483195,214.891345 236.452664,209.854731 233.881769,212.27251 C231.310874,214.690289 238.363889,212.559725 242.104791,215.059187 C245.845692,217.558649 244.986262,219.870929 244.733806,222.46201 C244.533995,224.512775 246.567357,227.666142 244.733806,230.741002 C241.540895,234.687911 239.167607,236.021478 235.927083,236.021478 C232.686559,236.021478 228.069865,234.803372 222.874484,232.937954 C217.679103,231.072537 218.440303,231.193644 216.793582,226.802388 C215.146861,222.411132 215.348983,220.173983 216.793582,216.722216 C218.238182,213.27045 219.792971,212.27251 222.874484,212.27251 C225.955997,212.27251 228.436047,217.835768 230.155823,216.722216 C231.875598,215.608665 227.785745,213.33986 226.144778,210.569928 C224.503811,207.799996 219.675844,209.969331 216.793582,210.569928 C213.911321,211.170525 212.555795,218.121633 212.555795,222.46201 C212.555795,226.802388 218.52865,233.375554 216.793582,232.937954 C215.934379,232.721256 209.980675,235.570147 204.553062,230.741002 C202.673693,229.068859 200.903646,225.116088 200.903646,219.523236 C200.903646,213.930384 204.553062,213.912243 204.553062,208.579362 C204.553062,203.246481 199.687179,202.181733 200.903646,199.644963 C202.120114,197.108193 207.590182,193.867704 210.854809,195.437967 C214.119436,197.008231 209.320799,204.431404 210.854809,204.431404 C212.388819,204.431404 215.04019,197.725181 219.948829,195.437967 C224.857468,193.150754 225.68347,198.169258 230.155823,195.437967 C233.137391,193.617107 235.426749,190.141161 237.023896,185.010128 C239.789683,178.1877 240.902656,174.257307 240.362816,173.218952 C239.822976,172.180596 238.710003,175.095239 237.023896,181.96288 C234.326393,187.330078 232.037035,191.030532 230.155823,193.064243 C227.334003,196.11481 226.362881,191.093217 224.553469,191.093217 C222.744057,191.093217 216.650881,196.692346 214.069145,193.064243 C211.487409,189.43614 216.050565,183.967563 219.948829,178.966399 C223.847094,173.965235 225.08343,175.824798 230.155823,172.426314 C235.228216,169.02783 238.281539,168.372529 237.023896,167.52617 C235.766253,166.67981 229.296587,169.8075 222.874484,167.52617 C216.452381,165.244839 218.34431,162.578201 219.948829,161.460574 C221.553349,160.342947 235.991826,153.389135 240.362816,155.344687 Z M213.83943,167.301508 C217.414981,165.188891 218.587263,170.196613 225.51335,170.196613 C228.763224,170.196613 226.027705,170.933424 220.847476,174.766676 C218.667684,176.379672 218.302717,176.402753 215.415115,181.386283 C213.108773,185.366652 212.983197,187.277308 211.209856,189.388245 C210.762925,189.920258 212.634805,192.748081 211.917262,193.341875 C211.292528,193.858868 207.703585,192.947031 207.277373,193.341875 C206.03852,194.489551 204.360348,194.957903 202.611279,195.733345 C201.528634,196.21333 200.827081,199.089303 198.835687,199.442578 C196.698614,199.821695 195.254405,196.521393 193.256228,195.733345 C191.317755,194.968843 181.86612,194.807038 186.89658,189.388245 C191.92704,183.969451 200.303122,186.527831 206.575119,181.386283 C212.847116,176.244736 210.263879,169.414126 213.83943,167.301508 Z M210.219262,168.661531 C211.116296,170.04562 210.300468,173.10436 207.771777,177.837752 L202.246927,182.30141 L191.730593,184.86111 L196.760867,176.761321 L203.224997,170.822245 C206.990807,167.997681 209.322229,167.277443 210.219262,168.661531 Z M210.481876,164.897068 C213.011363,163.049532 214.398123,161.327021 215.6549,161.327021 C215.970144,161.327021 216.618425,161.085826 216.886383,161.327021 C217.094724,161.514554 218.898756,160.475177 218.943408,160.882082 C218.990109,161.307648 217.060922,162.410757 216.886383,163.077457 C216.67986,163.866327 218.415177,165.930034 218.29493,166.172959 C217.86907,167.033291 214.83082,165.194916 213.357613,166.172959 C211.884406,167.151002 212.65477,168.234787 211.629381,168.387123 C210.950749,168.487942 210.211719,167.702331 209.736711,166.998933 C209.493999,166.639522 206.885151,167.759372 206.823582,167.572112 C206.641515,167.01837 207.95239,166.744604 210.481876,164.897068 Z M198.184484,201.572848 C200.993288,203.515135 202.492786,204.355275 202.759356,208.024758 C203.025926,211.694241 200.066122,212.132374 199.232032,215.992932 C198.397942,219.853489 197.819589,219.537038 199.232032,224.350857 C200.644474,229.164676 204.208971,231.979266 204.208971,232.955094 C204.208971,233.332775 204.495874,236.181408 202.759356,236.169921 C200.009174,236.151728 194.381356,233.080993 191.188359,232.955094 C185.979242,232.749699 183.912875,236.414939 182.280321,235.223772 C180.647767,234.032605 175.90078,226.526566 179.460471,225.363631 C183.020161,224.200697 187.973291,228.580168 189.864954,228.580168 C191.756617,228.580168 195.386489,227.30351 193.112642,225.363631 C190.838796,223.423753 185.528435,223.811114 183.423186,223.084526 C181.317938,222.357939 180.21583,222.86636 179.460471,220.651839 C178.956898,219.175492 179.315498,217.165156 180.536272,214.620832 C181.379323,211.004945 182.341628,209.321818 183.423186,209.571448 C184.504745,209.821079 185.524039,211.961574 186.48107,215.992932 L193.112642,220.651839 L191.834721,214.620832 L186.48107,208.024758 L189.864954,199.108285 C193.538771,199.456469 196.311948,200.27799 198.184484,201.572848 Z M188.592642,197.644641 C188.795516,199.369882 187.464182,202.454887 184.598639,206.899658 C183.147991,207.452836 181.779316,207.452836 180.492615,206.899658 C179.205914,206.346481 178.111704,205.287639 177.209984,203.723133 L179.061385,198.923172 C180.867523,196.365181 182.14833,195.086186 182.903806,195.086186 C184.03702,195.086186 188.288331,195.056781 188.592642,197.644641 Z M176.078408,206.554774 C177.158606,206.016835 177.663314,207.081994 178.523233,207.601361 C179.428579,208.148164 180.668573,208.196561 180.968058,209.49796 C181.552003,212.035459 178.944199,214.822349 178.523233,217.178633 C178.102267,219.534917 178.523233,220.05646 178.523233,223.182446 C178.523233,224.371057 177.68981,225.480821 177.159603,226.308431 C176.893334,226.724056 176.893334,227.331592 177.159603,228.13104 C177.418886,230.778858 178.36347,232.730142 179.993353,233.984894 C181.130084,234.859996 179.622811,237.502856 177.159603,236.671386 C175.917138,236.251985 172.577936,235.201257 171.443838,234.431642 C169.990623,233.44547 169.897526,233.344325 169.304841,233.023395 C167.332637,231.955474 167.886997,228.732512 169.058701,226.881933 C170.230404,225.031353 174.108455,227.101428 174.108455,226.308431 C174.108455,225.784759 173.553929,225.463677 172.415803,225.114128 C171.830464,224.934356 170.52596,225.309917 170.243098,224.470599 C169.603152,222.571726 169.972136,224.279739 171.443838,221.706841 C171.887475,220.931255 170.853287,218.750783 171.443838,217.638667 C171.749064,217.063872 174.620389,215.346313 174.887667,214.838994 C176.853025,211.108553 174.126409,207.526871 176.078408,206.554774 Z" id="Combined-Shape" fill="#51526A" transform="translate(208.199264, 195.915552) scale(-1, 1) translate(-208.199264, -195.915552) "></path>
        </g>
    </g>
</svg>