<?xml version="1.0" encoding="UTF-8"?>
<svg width="150px" height="150px" viewBox="0 0 150 150" version="1.1" xmlns="http://www.w3.org/2000/svg" xmlns:xlink="http://www.w3.org/1999/xlink">
    <!-- Generator: Sketch 50.2 (55047) - http://www.bohemiancoding.com/sketch -->
    <title>cerebrum</title>
    <desc>Created with Sketch.</desc>
    <defs>
        <radialGradient cx="50%" cy="51.7214674%" fx="50%" fy="51.7214674%" r="68.2846796%" id="radialGradient-1">
            <stop stop-color="#FFFFFF" offset="0%"></stop>
            <stop stop-color="#FEF4D7" offset="100%"></stop>
        </radialGradient>
    </defs>
    <g id="Page-1" stroke="none" stroke-width="1" fill="none" fill-rule="evenodd">
        <g id="cerebrum">
            <rect id="Rectangle" fill="url(#radialGradient-1)" x="0" y="0" width="150" height="150" rx="16"></rect>
            <path d="M66.1197115,27.1538436 C67.5206086,27.7805957 63.9537527,28.6380314 64.1399175,29.3411339 C64.2130068,29.6171759 68.1843651,28.5854285 68.4495989,28.9875013 C69.3904059,30.413688 69.7062784,31.0361738 69.7062784,32.5907862 C69.7062784,34.1453986 68.0706087,35.3460642 68.0706087,37.6968863 C68.0706087,40.0477085 69.7062784,38.7782781 69.7062784,40.394375 C69.7062784,42.0104719 68.5254581,43.5426295 68.0706087,46.9263184 C67.6157592,50.3100074 69.0751206,51.3934913 68.0706087,52.5623521 C67.0660968,53.7312129 64.3744993,51.4832285 63.2270355,52.5623521 C62.0795717,53.6414757 65.2275335,52.6905444 66.8972044,53.8061255 C68.5668752,54.9217065 68.1832869,55.9537432 68.0706087,57.1102165 C67.9814272,58.0255312 68.8889749,59.4329686 68.0706087,60.8053662 C66.6455214,62.5669843 64.6733735,61.7859286 63.2270355,61.7859286 C61.7806975,61.7859286 60.6330172,62.6185176 58.3141708,61.7859286 C55.9953244,60.9533396 56.3350697,61.0073931 55.6000912,59.0474506 C54.8651128,57.0875081 54.9553254,56.0890047 55.6000912,54.548383 C56.244857,53.0077613 56.9388038,52.5623521 58.3141708,52.5623521 C59.6895378,52.5623521 60.7964549,55.045393 61.5640396,54.548383 C62.3316242,54.0513731 60.5062062,53.0387411 59.773796,51.8024415 C59.0413858,50.5661418 56.8865267,51.5343779 55.6000912,51.8024415 C54.3136557,52.0705051 53.7086461,55.1729824 53.7086461,57.1102165 C53.7086461,59.0474506 54.8466422,61.0268167 55.6000912,61.7859286 C56.3535402,62.5450405 57.1170842,62.1865385 57.4256992,62.5450405 C57.7043095,62.8686876 56.8045149,63.3261231 56.3535402,63.3521076 C55.3184623,63.4117473 51.3996314,61.9289548 50.1367983,60.8053662 C49.2979824,60.0590412 48.5079602,58.2948068 48.5079602,55.7985578 C48.5079602,53.3023088 50.1367983,53.294212 50.1367983,50.9139953 C50.1367983,48.5337785 47.965016,48.0585511 48.5079602,46.9263184 C49.0509044,45.7940858 51.4923514,44.3477632 52.9494475,45.0486165 C54.4065436,45.7494698 52.264775,49.0626436 52.9494475,49.0626436 C53.6341199,49.0626436 54.8175023,46.069465 57.0083677,45.0486165 C59.1992331,44.027768 59.5679012,46.2676694 61.5640396,45.0486165 C62.8947985,44.2359146 63.9166041,42.6845007 64.6294563,40.394375 C65.8639056,37.3493307 66.3606573,35.5950847 66.1197115,35.1316371 C65.8787656,34.6681894 65.3820139,35.9690775 64.6294563,39.0343013 C63.425484,41.4298345 62.4036784,43.0814527 61.5640396,43.9891558 C60.3045813,45.3507105 59.8711419,43.1094305 59.0635498,43.1094305 C58.2559576,43.1094305 55.5363997,45.6084816 54.3840973,43.9891558 C53.2317948,42.36983 55.2684612,39.9290481 57.0083677,37.6968863 C58.7482742,35.4647245 59.3000861,36.2947002 61.5640396,34.77786 C63.8279931,33.2610199 65.1907782,32.9685407 64.6294563,32.5907862 C64.0681344,32.2130317 61.1805382,33.6090092 58.3141708,32.5907862 C55.4478034,31.5725632 56.2922249,30.3823668 57.0083677,29.8835382 C57.7245105,29.3847095 64.1688143,26.281025 66.1197115,27.1538436 Z M54.2815688,32.4905136 C55.8774391,31.5475921 56.4006617,33.7826811 59.4919716,33.7826811 C60.9424831,33.7826811 59.721543,34.111541 57.4094592,35.8224304 C56.4365559,36.5423566 56.273661,36.5526584 54.9848418,38.7769498 C53.9554558,40.5535018 53.8994076,41.4062816 53.1079149,42.348453 C52.9084373,42.5859057 53.7439103,43.8480434 53.4236507,44.1130709 C53.144814,44.3438194 51.5429667,43.9368408 51.3527359,44.1130709 C50.7998005,44.6253112 50.0507848,44.8343502 49.2701252,45.1804518 C48.7869102,45.3946828 48.4737871,46.6783118 47.5849712,46.835988 C46.6311347,47.005199 45.986543,45.53218 45.0946995,45.1804518 C44.2295039,44.839233 40.0109698,44.7670147 42.2562074,42.348453 C44.5014449,39.9298912 48.239929,41.0717689 51.0393,38.7769498 C53.838671,36.4821307 52.6856985,33.433435 54.2815688,32.4905136 Z M52.6657849,33.0975305 C53.0661565,33.7152887 52.7020291,35.0804915 51.5734027,37.1931392 L49.1075046,39.1853969 L44.4137652,40.3278637 L46.6589197,36.7126971 L49.5440452,34.0619185 C51.2248333,32.801235 52.2654132,32.4797724 52.6657849,33.0975305 Z M52.782997,31.4173433 C53.911979,30.5927352 54.5309294,29.8239297 55.0918649,29.8239297 C55.2325673,29.8239297 55.5219137,29.7162775 55.6415106,29.8239297 C55.7344992,29.907631 56.5396899,29.4437274 56.5596197,29.6253406 C56.5804636,29.8152831 55.7194125,30.3076319 55.6415106,30.6051991 C55.5493335,30.9572944 56.3238549,31.8783854 56.2701854,31.9868098 C56.080112,32.3708004 54.7240546,31.5502813 54.0665202,31.9868098 C53.4089857,32.4233383 53.7528212,32.9070626 53.2951611,32.975054 C52.9922683,33.0200528 52.6624183,32.669412 52.4504086,32.3554656 C52.3420793,32.1950504 51.1776762,32.694871 51.150196,32.6112917 C51.0689345,32.3641407 51.654015,32.2419513 52.782997,31.4173433 Z M47.2943205,47.7867884 C48.5479698,48.6536863 49.2172385,49.0286647 49.3362162,50.6664595 C49.4551939,52.3042543 48.1341491,52.4998056 47.7618709,54.2228824 C47.3895928,55.9459591 47.1314575,55.8047179 47.7618709,57.9532625 C48.3922844,60.101807 49.9832206,61.3580387 49.9832206,61.7935784 C49.9832206,62.0470354 50.6999389,63.8556612 49.3362162,64.3543996 C48.3565218,64.7126918 45.4322258,63.8444917 44.4602404,63.8061665 C42.1352631,63.7144932 39.6659156,61.8896902 38.9372602,61.3580387 C38.2086048,60.8263871 37.348469,58.9243434 38.9372602,58.4052926 C40.5260514,57.8862418 42.7367742,59.8409247 43.5810774,59.8409247 C44.4253807,59.8409247 46.0454956,59.2711156 45.0306132,58.4052926 C44.0157307,57.5394696 41.6455654,57.7123597 40.7059331,57.3880632 C39.7663008,57.0637666 39.2743986,57.2906891 38.9372602,56.3022856 C38.7125012,55.6433498 38.8725548,54.7460798 39.4174209,53.6104753 C39.7936988,51.9966021 40.2232029,51.2453742 40.7059331,51.3567916 C41.1886633,51.468209 41.6436035,52.4235726 42.0707536,54.2228824 L45.0306132,56.3022856 L44.4602404,53.6104753 L42.0707536,50.6664595 L43.5810774,46.6867838 C45.2208066,46.8421883 46.4585543,47.2088565 47.2943205,47.7867884 Z M43.0132084,46.033518 C43.1037569,46.8035419 42.5095445,48.1804678 41.2305713,50.1642955 C40.5831054,50.4111944 39.9722268,50.4111944 39.3979356,50.1642955 C38.8236443,49.9173967 38.3352671,49.4448055 37.9328038,48.746522 L38.7591368,46.6041627 C39.5652679,45.4624585 40.1369286,44.8916065 40.4741189,44.8916065 C40.9799043,44.8916065 42.8773858,44.8784821 43.0132084,46.033518 Z M37.4277492,50.0103641 C37.9098724,49.7702666 38.1351381,50.2456771 38.5189444,50.4774853 C38.9230261,50.7215394 39.4764705,50.7431401 39.6101395,51.3239916 C39.8707705,52.4565496 38.7068335,53.7004181 38.5189444,54.7520946 C38.3310553,55.8037712 38.5189444,56.0365507 38.5189444,57.4317672 C38.5189444,57.9622786 37.6643956,58.4575975 37.4277492,58.8269837 C37.3089058,59.012489 37.3089058,59.2299075 37.4277492,59.4792395 C37.4277492,60.3009024 37.791481,60.9917496 38.5189444,61.551781 C39.0125232,61.9317583 37.9639011,62.5263428 37.1549796,62.5147609 C36.175552,62.5007378 35.3053726,61.8128248 34.8232843,61.551781 C33.9430333,61.0751378 33.7716893,59.9089201 34.294654,59.0829537 C34.8176186,58.2569874 36.548503,59.1809208 36.548503,58.8269837 C36.548503,58.593254 36.3010025,58.4499456 35.7930242,58.2939323 C35.5317708,58.2136946 34.9495335,58.3813185 34.8232843,58.0067069 C34.5376581,57.1591857 34.7023464,57.9215205 35.3592089,56.7731629 C35.5572166,56.4269967 35.095629,55.4537902 35.3592089,54.9574211 C35.4954397,54.7008736 36.7769939,53.9342783 36.8962875,53.7078473 C37.7734828,52.0428449 36.5565165,50.4442383 37.4277492,50.0103641 Z" id="Combined-Shape" fill="#A96C2D"></path>
            <path d="M116.119711,27.1538436 C117.520609,27.7805957 113.953753,28.6380314 114.139917,29.3411339 C114.213007,29.6171759 118.184365,28.5854285 118.449599,28.9875013 C119.390406,30.413688 119.706278,31.0361738 119.706278,32.5907862 C119.706278,34.1453986 118.070609,35.3460642 118.070609,37.6968863 C118.070609,40.0477085 119.706278,38.7782781 119.706278,40.394375 C119.706278,42.0104719 118.525458,43.5426295 118.070609,46.9263184 C117.615759,50.3100074 119.075121,51.3934913 118.070609,52.5623521 C117.066097,53.7312129 114.374499,51.4832285 113.227035,52.5623521 C112.079572,53.6414757 115.227533,52.6905444 116.897204,53.8061255 C118.566875,54.9217065 118.183287,55.9537432 118.070609,57.1102165 C117.981427,58.0255312 118.888975,59.4329686 118.070609,60.8053662 C116.645521,62.5669843 114.673373,61.7859286 113.227035,61.7859286 C111.780697,61.7859286 110.633017,62.6185176 108.314171,61.7859286 C105.995324,60.9533396 106.33507,61.0073931 105.600091,59.0474506 C104.865113,57.0875081 104.955325,56.0890047 105.600091,54.548383 C106.244857,53.0077613 106.938804,52.5623521 108.314171,52.5623521 C109.689538,52.5623521 110.796455,55.045393 111.56404,54.548383 C112.331624,54.0513731 110.506206,53.0387411 109.773796,51.8024415 C109.041386,50.5661418 106.886527,51.5343779 105.600091,51.8024415 C104.313656,52.0705051 103.708646,55.1729824 103.708646,57.1102165 C103.708646,59.0474506 104.846642,61.0268167 105.600091,61.7859286 C106.35354,62.5450405 107.117084,62.1865385 107.425699,62.5450405 C107.704309,62.8686876 106.804515,63.3261231 106.35354,63.3521076 C105.318462,63.4117473 101.399631,61.9289548 100.136798,60.8053662 C99.2979824,60.0590412 98.5079602,58.2948068 98.5079602,55.7985578 C98.5079602,53.3023088 100.136798,53.294212 100.136798,50.9139953 C100.136798,48.5337785 97.965016,48.0585511 98.5079602,46.9263184 C99.0509044,45.7940858 101.492351,44.3477632 102.949447,45.0486165 C104.406544,45.7494698 102.264775,49.0626436 102.949447,49.0626436 C103.63412,49.0626436 104.817502,46.069465 107.008368,45.0486165 C109.199233,44.027768 109.567901,46.2676694 111.56404,45.0486165 C112.894798,44.2359146 113.916604,42.6845007 114.629456,40.394375 C115.863906,37.3493307 116.360657,35.5950847 116.119711,35.1316371 C115.878766,34.6681894 115.382014,35.9690775 114.629456,39.0343013 C113.425484,41.4298345 112.403678,43.0814527 111.56404,43.9891558 C110.304581,45.3507105 109.871142,43.1094305 109.06355,43.1094305 C108.255958,43.1094305 105.5364,45.6084816 104.384097,43.9891558 C103.231795,42.36983 105.268461,39.9290481 107.008368,37.6968863 C108.748274,35.4647245 109.300086,36.2947002 111.56404,34.77786 C113.827993,33.2610199 115.190778,32.9685407 114.629456,32.5907862 C114.068134,32.2130317 111.180538,33.6090092 108.314171,32.5907862 C105.447803,31.5725632 106.292225,30.3823668 107.008368,29.8835382 C107.72451,29.3847095 114.168814,26.281025 116.119711,27.1538436 Z M104.281569,32.4905136 C105.877439,31.5475921 106.400662,33.7826811 109.491972,33.7826811 C110.942483,33.7826811 109.721543,34.111541 107.409459,35.8224304 C106.436556,36.5423566 106.273661,36.5526584 104.984842,38.7769498 C103.955456,40.5535018 103.899408,41.4062816 103.107915,42.348453 C102.908437,42.5859057 103.74391,43.8480434 103.423651,44.1130709 C103.144814,44.3438194 101.542967,43.9368408 101.352736,44.1130709 C100.7998,44.6253112 100.050785,44.8343502 99.2701252,45.1804518 C98.7869102,45.3946828 98.4737871,46.6783118 97.5849712,46.835988 C96.6311347,47.005199 95.986543,45.53218 95.0946995,45.1804518 C94.2295039,44.839233 90.0109698,44.7670147 92.2562074,42.348453 C94.5014449,39.9298912 98.239929,41.0717689 101.0393,38.7769498 C103.838671,36.4821307 102.685699,33.433435 104.281569,32.4905136 Z M102.665785,33.0975305 C103.066157,33.7152887 102.702029,35.0804915 101.573403,37.1931392 L99.1075046,39.1853969 L94.4137652,40.3278637 L96.6589197,36.7126971 L99.5440452,34.0619185 C101.224833,32.801235 102.265413,32.4797724 102.665785,33.0975305 Z M102.782997,31.4173433 C103.911979,30.5927352 104.530929,29.8239297 105.091865,29.8239297 C105.232567,29.8239297 105.521914,29.7162775 105.641511,29.8239297 C105.734499,29.907631 106.53969,29.4437274 106.55962,29.6253406 C106.580464,29.8152831 105.719413,30.3076319 105.641511,30.6051991 C105.549333,30.9572944 106.323855,31.8783854 106.270185,31.9868098 C106.080112,32.3708004 104.724055,31.5502813 104.06652,31.9868098 C103.408986,32.4233383 103.752821,32.9070626 103.295161,32.975054 C102.992268,33.0200528 102.662418,32.669412 102.450409,32.3554656 C102.342079,32.1950504 101.177676,32.694871 101.150196,32.6112917 C101.068934,32.3641407 101.654015,32.2419513 102.782997,31.4173433 Z M97.2943205,47.7867884 C98.5479698,48.6536863 99.2172385,49.0286647 99.3362162,50.6664595 C99.4551939,52.3042543 98.1341491,52.4998056 97.7618709,54.2228824 C97.3895928,55.9459591 97.1314575,55.8047179 97.7618709,57.9532625 C98.3922844,60.101807 99.9832206,61.3580387 99.9832206,61.7935784 C99.9832206,62.0470354 100.699939,63.8556612 99.3362162,64.3543996 C98.3565218,64.7126918 95.4322258,63.8444917 94.4602404,63.8061665 C92.1352631,63.7144932 89.6659156,61.8896902 88.9372602,61.3580387 C88.2086048,60.8263871 87.348469,58.9243434 88.9372602,58.4052926 C90.5260514,57.8862418 92.7367742,59.8409247 93.5810774,59.8409247 C94.4253807,59.8409247 96.0454956,59.2711156 95.0306132,58.4052926 C94.0157307,57.5394696 91.6455654,57.7123597 90.7059331,57.3880632 C89.7663008,57.0637666 89.2743986,57.2906891 88.9372602,56.3022856 C88.7125012,55.6433498 88.8725548,54.7460798 89.4174209,53.6104753 C89.7936988,51.9966021 90.2232029,51.2453742 90.7059331,51.3567916 C91.1886633,51.468209 91.6436035,52.4235726 92.0707536,54.2228824 L95.0306132,56.3022856 L94.4602404,53.6104753 L92.0707536,50.6664595 L93.5810774,46.6867838 C95.2208066,46.8421883 96.4585543,47.2088565 97.2943205,47.7867884 Z M93.0132084,46.033518 C93.1037569,46.8035419 92.5095445,48.1804678 91.2305713,50.1642955 C90.5831054,50.4111944 89.9722268,50.4111944 89.3979356,50.1642955 C88.8236443,49.9173967 88.3352671,49.4448055 87.9328038,48.746522 L88.7591368,46.6041627 C89.5652679,45.4624585 90.1369286,44.8916065 90.4741189,44.8916065 C90.9799043,44.8916065 92.8773858,44.8784821 93.0132084,46.033518 Z M87.4277492,50.0103641 C87.9098724,49.7702666 88.1351381,50.2456771 88.5189444,50.4774853 C88.9230261,50.7215394 89.4764705,50.7431401 89.6101395,51.3239916 C89.8707705,52.4565496 88.7068335,53.7004181 88.5189444,54.7520946 C88.3310553,55.8037712 88.5189444,56.0365507 88.5189444,57.4317672 C88.5189444,57.9622786 87.6643956,58.4575975 87.4277492,58.8269837 C87.3089058,59.012489 87.3089058,59.2299075 87.4277492,59.4792395 C87.4277492,60.3009024 87.791481,60.9917496 88.5189444,61.551781 C89.0125232,61.9317583 87.9639011,62.5263428 87.1549796,62.5147609 C86.175552,62.5007378 85.3053726,61.8128248 84.8232843,61.551781 C83.9430333,61.0751378 83.7716893,59.9089201 84.294654,59.0829537 C84.8176186,58.2569874 86.548503,59.1809208 86.548503,58.8269837 C86.548503,58.593254 86.3010025,58.4499456 85.7930242,58.2939323 C85.5317708,58.2136946 84.9495335,58.3813185 84.8232843,58.0067069 C84.5376581,57.1591857 84.7023464,57.9215205 85.3592089,56.7731629 C85.5572166,56.4269967 85.095629,55.4537902 85.3592089,54.9574211 C85.4954397,54.7008736 86.7769939,53.9342783 86.8962875,53.7078473 C87.7734828,52.0428449 86.5565165,50.4442383 87.4277492,50.0103641 Z" id="Combined-Shape" fill="#A96C2D" transform="translate(101.853139, 45.720448) scale(-1, 1) translate(-101.853139, -45.720448) "></path>
            <path d="M115.395352,71.1373377 C116.104633,70.561158 117.315031,71.9610287 117.914732,72.3306104 C118.23526,72.5281447 119.036221,71.9007036 119.191634,72.3306104 C119.637823,73.5648618 117.94792,74.810692 117.914732,76.0103381 C117.892607,76.8101022 118.284308,76.8101022 119.089835,76.0103381 C119.585534,73.923499 120.173968,72.6969231 120.855138,72.3306104 C121.876894,71.7811414 122.265908,72.4084019 122.946434,73.9363772 C123.62696,75.4643525 124.288769,77.4767202 123.721402,78.7661936 C123.154036,80.0556671 121.38749,78.434337 120.056045,80.5054653 C118.724599,82.5765935 119.089835,83.2587081 119.089835,85.9708204 C119.089835,88.6829328 119.736914,88.1898297 119.191634,88.7382649 C118.646355,89.2867002 118.329915,87.3205533 116.854528,85.2097512 C115.37914,83.0989492 115.800583,81.8427816 115.395352,78.7661936 C114.990122,75.6896056 114.929051,77.7477525 115.395352,74.5613105 C115.861654,71.3748685 114.306975,72.0214745 115.395352,71.1373377 Z M123.509259,92.803143 C122.938173,92.803143 122.755512,92.1383639 122.176113,91.0767515 C121.947291,90.657491 121.635837,90.3911872 121.058462,89.5275992 C120.847787,89.212491 120.181677,89.0326187 120.067392,88.4319805 C119.639897,86.1852287 119.457957,86.1380653 119.729847,84.539449 C120.001737,82.9408327 119.292103,83.5050739 120.362107,81.3634878 C120.842966,80.401061 121.013819,80.172687 121.342943,80.2500297 C121.617665,80.3145881 122.068994,79.903929 122.623182,79.8756045 C122.893265,79.8618005 123.338652,80.5402949 123.509259,80.2500297 C123.701725,79.9225764 124.584353,79.0133683 124.666167,77.6625713 C124.77395,75.8830221 122.957244,74.338372 123.987132,73.1948114 C124.290782,72.8576468 124.757242,73.1802486 125.404008,73.1948114 C126.596154,73.2216541 128.873658,73.3274131 130.737818,74.5839484 C132.601978,75.8404836 133.7998,76.9542618 133.7998,78.8539857 C133.7998,80.7537096 132.251335,81.3492147 130.737818,82.4798543 C129.224301,83.6104938 128.569699,81.945 127.321383,83.6935457 C126.489172,84.8592428 126.068917,86.6385 126.060618,89.0313171 C125.238631,91.5458677 124.388178,92.803143 123.509259,92.803143 Z" id="Combined-Shape" fill="#D7A44A"></path>
            <path d="M24.9954524,71.1373377 C25.7047333,70.561158 26.9151312,71.9610287 27.5148318,72.3306104 C27.8353603,72.5281447 28.6363207,71.9007036 28.7917344,72.3306104 C29.2379232,73.5648618 27.5480199,74.810692 27.5148318,76.0103381 C27.4927065,76.8101022 27.8844076,76.8101022 28.6899353,76.0103381 C29.1856335,73.923499 29.7740679,72.6969231 30.4552384,72.3306104 C31.4769942,71.7811414 31.8660084,72.4084019 32.5465342,73.9363772 C33.22706,75.4643525 33.8888688,77.4767202 33.3215022,78.7661936 C32.7541357,80.0556671 30.9875902,78.434337 29.6561445,80.5054653 C28.3246988,82.5765935 28.6899353,83.2587081 28.6899353,85.9708204 C28.6899353,88.6829328 29.3370137,88.1898297 28.7917344,88.7382649 C28.2464552,89.2867002 27.9300152,87.3205533 26.4546276,85.2097512 C24.97924,83.0989492 25.400683,81.8427816 24.9954524,78.7661936 C24.5902219,75.6896056 24.5291513,77.7477525 24.9954524,74.5613105 C25.4617535,71.3748685 23.9070746,72.0214745 24.9954524,71.1373377 Z M33.1093591,92.803143 C32.5382728,92.803143 32.3556118,92.1383639 31.7762125,91.0767515 C31.5473914,90.657491 31.2359366,90.3911872 30.6585615,89.5275992 C30.4478874,89.212491 29.7817766,89.0326187 29.6674918,88.4319805 C29.2399971,86.1852287 29.0580567,86.1380653 29.329947,84.539449 C29.6018374,82.9408327 28.892203,83.5050739 29.962207,81.3634878 C30.4430658,80.401061 30.6139186,80.172687 30.9430429,80.2500297 C31.2177647,80.3145881 31.6690942,79.903929 32.2232815,79.8756045 C32.4933651,79.8618005 32.9387516,80.5402949 33.1093591,80.2500297 C33.3018245,79.9225764 34.1844526,79.0133683 34.2662671,77.6625713 C34.3740501,75.8830221 32.5573438,74.338372 33.5872321,73.1948114 C33.8908818,72.8576468 34.3573422,73.1802486 35.004108,73.1948114 C36.1962536,73.2216541 38.4737576,73.3274131 40.337918,74.5839484 C42.2020784,75.8404836 43.3999,76.9542618 43.3999,78.8539857 C43.3999,80.7537096 41.8514346,81.3492147 40.337918,82.4798543 C38.8244013,83.6104938 38.1697992,81.945 36.9214829,83.6935457 C36.0892721,84.8592428 35.6690173,86.6385 35.6607184,89.0313171 C34.8387314,91.5458677 33.9882783,92.803143 33.1093591,92.803143 Z" id="Combined-Shape" fill="#D7A44A" transform="translate(34.000000, 81.901571) scale(-1, 1) translate(-34.000000, -81.901571) "></path>
            <path d="M46.1622855,102.221391 C46.8053665,100.346902 47.9061445,100.148695 48.8260003,97.5237298 C49.745856,94.898765 49.1626587,93.8926449 49.7058893,92.1091148 C50.2491199,90.3255847 49.8929744,90.3660978 51.4502081,88.907953 C53.0074418,87.4498083 53.1718634,87.2820268 55.1780347,86.9851696 C57.1842059,86.6883124 58.2899153,86.2360291 59.317249,87.7438511 C60.3445828,89.2516731 60.7307241,91.159786 59.317249,93.0603117 C57.9037739,94.9608374 55.743584,93.0188206 54.2156963,94.6032802 C53.1971045,95.6595866 52.7051281,97.4189374 52.7397673,99.8813326 C50.0462998,102.404378 48.4056152,103.770479 47.8177136,103.979635 C46.9358612,104.29337 45.5192045,104.095879 46.1622855,102.221391 Z M55.0114738,95.155384 C55.9211113,94.5506239 58.1808168,95.0272473 59.6841129,93.9467676 C61.187409,92.866288 60.5215349,89.7014847 61.7548823,89.7014847 C62.9882297,89.7014847 65.2528185,93.2739115 64.8326825,95.7044694 C64.4125465,98.1350272 62.3115246,96.9730123 60.1854531,98.7808972 C58.0593817,100.588782 59.0873082,101.485601 57.5969283,101.857325 C56.1065484,102.229049 55.4294562,101.500436 54.5355433,100.190074 C53.6416305,98.8797112 53.6885406,98.8879225 53.82006,97.496628 C53.9515794,96.1053336 54.1018362,95.7601441 55.0114738,95.155384 Z M56.924243,83.1749738 C57.706569,82.6109271 61.2517559,82.4512396 65.1743356,83.1749738 C69.0969152,83.8987079 67.9125506,83.9093316 69.7735078,85.5457227 C71.6344649,87.1821137 72.7120763,89.5530419 73.0508957,90.1010506 C73.2639982,90.4457239 71.4069144,91.242999 69.7735078,90.1010506 C68.8099013,89.4273734 68.3455143,86.9211225 67.2933086,86.3716382 C65.0733323,85.2123192 63.1544625,85.2904178 63.1557414,85.5457227 C63.1572129,85.8394515 63.7998994,85.9640655 65.5156828,87.3818372 C66.5758154,88.257837 66.7102282,91.1833911 67.916439,92.2706277 C70.1247033,94.2610806 69.4570275,95.1100816 69.2868393,95.535197 C68.5754145,97.3122742 70.699063,98.2459601 69.7735078,99.0332213 C68.8479526,99.8204825 66.0253514,100.080993 65.1743356,99.0332213 C64.6069917,98.3347071 64.6069917,97.69761 65.1743356,97.1219302 C65.8624059,94.7126663 65.8081698,92.9377347 65.0116272,91.7971353 C64.2821562,90.7525783 63.9104916,89.8747182 63.1557414,88.9876194 C62.8745061,88.6570683 61.6414653,88.9867492 60.7143271,88.4000876 C60.0542242,87.9823969 59.6951653,86.6291048 59.285279,86.3716382 C58.7326841,86.0245303 55.7259559,85.7561209 55.3664918,85.5457227 C54.581461,85.0862355 55.5556887,84.8307296 56.2233745,84.3191868 C56.6500459,83.9922954 56.6858324,83.3468647 56.924243,83.1749738 Z M54.9121252,74.3585574 C55.1940183,73.8021483 53.5805622,71.3462621 54.166785,71.0432333 C54.6361704,70.8005999 55.4829828,71.6358035 57.2271671,72.1408153 C58.2549115,72.4383888 60.8571229,72.1829065 61.2342968,73.2062444 C61.6114707,74.2295823 59.8720322,74.9051095 60.4584573,77.2400597 C60.7194446,78.2792243 61.1168912,79.0738508 61.2342968,78.8324791 C61.4458566,78.3975376 60.3616421,74.6961333 62.6672328,72.7189003 C64.9728235,70.7416673 68.4572841,71.1903563 69.0372405,72.1408153 C69.6171969,73.0912743 65.902244,75.0069872 65.4259793,77.2400597 C64.9497145,79.4731322 66.0777762,79.310579 66.6061274,78.8324791 C67.1344786,78.3543791 69.6153586,72.0995848 70.4223403,72.7189003 C71.2293221,73.3382158 72.2832286,78.393419 70.4223403,81.7612191 C68.5614521,85.1290191 67.9241598,81.7612191 65.4259793,81.7612191 C63.7605256,81.7612191 60.845274,81.7612191 56.6802244,81.7612191 C56.3444496,79.3877187 55.956382,77.8806656 55.5160215,77.2400597 C54.4268556,75.6556166 53.0081686,74.5256218 53.0610834,73.9288071 C53.0943809,73.5532507 54.74234,74.6936846 54.9121252,74.3585574 Z M67.69582,88.924536 C67.69582,88.496827 68.1846466,90.0305144 69.4413462,90.6900404 C70.0854915,91.0280931 70.331155,91.4467424 70.3834464,91.4560873 C70.4331732,91.4649739 70.2919048,91.0476354 70.7629471,91.9632055 C70.9927725,92.4099195 71.0922083,92.4291168 71.0614839,92.6081275 C70.9630172,93.1818271 71.8920133,93.2969267 71.8920133,94.282695 C71.8920133,95.5760513 72.2529048,100.023724 71.2867207,98.7303676 C70.6368217,97.8603978 70.4428402,97.5685248 70.3834464,96.406729 C70.3545413,95.8413202 70.7217066,94.830718 70.3834464,93.9070158 C69.9780485,92.7999778 68.7785614,92.2818487 68.3797672,91.4560873 C67.7620798,90.1770758 67.69582,89.1844428 67.69582,88.924536 Z" id="Combined-Shape" fill="#D7A44A"></path>
            <path d="M84.1622855,102.221391 C84.8053665,100.346902 85.9061445,100.148695 86.8260003,97.5237298 C87.745856,94.898765 87.1626587,93.8926449 87.7058893,92.1091148 C88.2491199,90.3255847 87.8929744,90.3660978 89.4502081,88.907953 C91.0074418,87.4498083 91.1718634,87.2820268 93.1780347,86.9851696 C95.1842059,86.6883124 96.2899153,86.2360291 97.317249,87.7438511 C98.3445828,89.2516731 98.7307241,91.159786 97.317249,93.0603117 C95.9037739,94.9608374 93.743584,93.0188206 92.2156963,94.6032802 C91.1971045,95.6595866 90.7051281,97.4189374 90.7397673,99.8813326 C88.0462998,102.404378 86.4056152,103.770479 85.8177136,103.979635 C84.9358612,104.29337 83.5192045,104.095879 84.1622855,102.221391 Z M93.0114738,95.155384 C93.9211113,94.5506239 96.1808168,95.0272473 97.6841129,93.9467676 C99.187409,92.866288 98.5215349,89.7014847 99.7548823,89.7014847 C100.98823,89.7014847 103.252819,93.2739115 102.832683,95.7044694 C102.412546,98.1350272 100.311525,96.9730123 98.1854531,98.7808972 C96.0593817,100.588782 97.0873082,101.485601 95.5969283,101.857325 C94.1065484,102.229049 93.4294562,101.500436 92.5355433,100.190074 C91.6416305,98.8797112 91.6885406,98.8879225 91.82006,97.496628 C91.9515794,96.1053336 92.1018362,95.7601441 93.0114738,95.155384 Z M94.924243,83.1749738 C95.706569,82.6109271 99.2517559,82.4512396 103.174336,83.1749738 C107.096915,83.8987079 105.912551,83.9093316 107.773508,85.5457227 C109.634465,87.1821137 110.712076,89.5530419 111.050896,90.1010506 C111.263998,90.4457239 109.406914,91.242999 107.773508,90.1010506 C106.809901,89.4273734 106.345514,86.9211225 105.293309,86.3716382 C103.073332,85.2123192 101.154462,85.2904178 101.155741,85.5457227 C101.157213,85.8394515 101.799899,85.9640655 103.515683,87.3818372 C104.575815,88.257837 104.710228,91.1833911 105.916439,92.2706277 C108.124703,94.2610806 107.457028,95.1100816 107.286839,95.535197 C106.575415,97.3122742 108.699063,98.2459601 107.773508,99.0332213 C106.847953,99.8204825 104.025351,100.080993 103.174336,99.0332213 C102.606992,98.3347071 102.606992,97.69761 103.174336,97.1219302 C103.862406,94.7126663 103.80817,92.9377347 103.011627,91.7971353 C102.282156,90.7525783 101.910492,89.8747182 101.155741,88.9876194 C100.874506,88.6570683 99.6414653,88.9867492 98.7143271,88.4000876 C98.0542242,87.9823969 97.6951653,86.6291048 97.285279,86.3716382 C96.7326841,86.0245303 93.7259559,85.7561209 93.3664918,85.5457227 C92.581461,85.0862355 93.5556887,84.8307296 94.2233745,84.3191868 C94.6500459,83.9922954 94.6858324,83.3468647 94.924243,83.1749738 Z M92.9121252,74.3585574 C93.1940183,73.8021483 91.5805622,71.3462621 92.166785,71.0432333 C92.6361704,70.8005999 93.4829828,71.6358035 95.2271671,72.1408153 C96.2549115,72.4383888 98.8571229,72.1829065 99.2342968,73.2062444 C99.6114707,74.2295823 97.8720322,74.9051095 98.4584573,77.2400597 C98.7194446,78.2792243 99.1168912,79.0738508 99.2342968,78.8324791 C99.4458566,78.3975376 98.3616421,74.6961333 100.667233,72.7189003 C102.972823,70.7416673 106.457284,71.1903563 107.03724,72.1408153 C107.617197,73.0912743 103.902244,75.0069872 103.425979,77.2400597 C102.949715,79.4731322 104.077776,79.310579 104.606127,78.8324791 C105.134479,78.3543791 107.615359,72.0995848 108.42234,72.7189003 C109.229322,73.3382158 110.283229,78.393419 108.42234,81.7612191 C106.561452,85.1290191 105.92416,81.7612191 103.425979,81.7612191 C101.760526,81.7612191 98.845274,81.7612191 94.6802244,81.7612191 C94.3444496,79.3877187 93.956382,77.8806656 93.5160215,77.2400597 C92.4268556,75.6556166 91.0081686,74.5256218 91.0610834,73.9288071 C91.0943809,73.5532507 92.74234,74.6936846 92.9121252,74.3585574 Z M105.69582,88.924536 C105.69582,88.496827 106.184647,90.0305144 107.441346,90.6900404 C108.085492,91.0280931 108.331155,91.4467424 108.383446,91.4560873 C108.433173,91.4649739 108.291905,91.0476354 108.762947,91.9632055 C108.992772,92.4099195 109.092208,92.4291168 109.061484,92.6081275 C108.963017,93.1818271 109.892013,93.2969267 109.892013,94.282695 C109.892013,95.5760513 110.252905,100.023724 109.286721,98.7303676 C108.636822,97.8603978 108.44284,97.5685248 108.383446,96.406729 C108.354541,95.8413202 108.721707,94.830718 108.383446,93.9070158 C107.978048,92.7999778 106.778561,92.2818487 106.379767,91.4560873 C105.76208,90.1770758 105.69582,89.1844428 105.69582,88.924536 Z" id="Combined-Shape" fill="#D7A44A" transform="translate(97.533838, 87.550535) scale(-1, 1) translate(-97.533838, -87.550535) "></path>
            <path d="M114.06257,111.781318 C114.777121,112.788989 112.954553,112.951886 111.006687,116.166859 C109.058821,119.381831 110.733316,120.728648 108.641622,120.728648 C106.549929,120.728648 106.023557,119.780514 105.160947,118.527453 C104.298336,117.274393 105.512754,117.066703 105.160947,115.672488 C104.809139,114.278272 104.708174,114.319967 104.099257,114.319967 C103.490341,114.319967 104.099257,114.488326 104.099257,115.672488 C104.099257,116.595924 104.356598,117.205556 104.099257,118.158085 C104.026599,118.427024 104.373723,119.191688 104.099257,119.426021 C103.268211,120.135547 101.322587,120.135547 98.2623847,119.426021 C96.0533614,118.72733 94.4110482,117.870874 93.3354452,116.85665 C91.7220407,115.335314 91.2549937,114.766608 91.2549937,112.818505 C91.2549937,112.049952 91.5322607,112.133342 91.9152218,111.781318 C92.5029784,111.241044 93.3508682,110.497616 93.914683,110.497616 C94.8458594,110.497616 93.4418887,111.374567 94.8632963,111.781318 C96.2847039,112.18807 97.6130207,112.836828 99.3163882,112.282844 C101.019756,111.72886 99.9212845,111.073292 101.473848,110.060801 C102.045512,109.687995 102.581249,109.440039 102.924356,109.213914 C103.513082,108.825913 104.330995,109.053337 105.160947,109.213914 C106.474589,109.468073 106.27035,109.813694 108.641622,110.497616 C110.697455,111.090559 111.703163,109.47522 112.672153,110.060801 C112.820831,110.15065 113.967517,111.647273 114.06257,111.781318 Z M89.0441919,112.986463 C90.2745069,113.457424 89.9247718,115.877244 92.4435016,117.811399 C94.1226548,119.100836 96.7277743,120.128059 100.25886,120.893068 C100.773271,120.614966 102.141539,120.614966 104.363665,120.893068 C104.721802,120.937889 104.548659,120.053513 104.91391,120.108121 C105.232897,120.155812 105.268456,120.46908 105.702527,120.585019 C106.174443,120.711067 106.926889,121.918114 107.983902,121.291862 C108.21471,121.155114 109.689441,121.781117 110.272742,120.585019 C110.871942,119.356318 111.172793,116.969321 111.979825,115.878828 C112.785721,114.789869 113.598736,113.15271 114.509868,114.337862 C115.421,115.523015 115.065242,117.959228 114.509868,119.169775 C113.830125,120.651407 111.300068,121.380822 110.987735,121.968714 C110.420217,123.036935 109.614093,123.478346 108.569364,123.292949 C105.71836,123.447194 104.108521,123.447194 103.739847,123.292949 C103.088001,123.020231 102.079167,124.744232 100.25886,124.164065 C97.8532208,123.397341 96.3474198,122.312548 94.9681943,121.968714 C93.9603724,121.717469 93.0222602,122.272138 91.8394815,121.598307 C89.0380452,120.002322 88.7640104,118.796106 88.2938326,117.347563 C87.8236548,115.899019 87.8138769,112.515503 89.0441919,112.986463 Z" id="Combined-Shape" fill="#A96C2D"></path>
            <path d="M64.0625702,111.781318 C64.7771212,112.788989 62.9545532,112.951886 61.0066871,116.166859 C59.058821,119.381831 60.7333158,120.728648 58.6416224,120.728648 C56.549929,120.728648 56.0235569,119.780514 55.1609466,118.527453 C54.2983362,117.274393 55.5127537,117.066703 55.1609466,115.672488 C54.8091394,114.278272 54.708174,114.319967 54.0992573,114.319967 C53.4903406,114.319967 54.0992573,114.488326 54.0992573,115.672488 C54.0992573,116.595924 54.356598,117.205556 54.0992573,118.158085 C54.0265991,118.427024 54.3737233,119.191688 54.0992573,119.426021 C53.2682109,120.135547 51.3225867,120.135547 48.2623847,119.426021 C46.0533614,118.72733 44.4110482,117.870874 43.3354452,116.85665 C41.7220407,115.335314 41.2549937,114.766608 41.2549937,112.818505 C41.2549937,112.049952 41.5322607,112.133342 41.9152218,111.781318 C42.5029784,111.241044 43.3508682,110.497616 43.914683,110.497616 C44.8458594,110.497616 43.4418887,111.374567 44.8632963,111.781318 C46.2847039,112.18807 47.6130207,112.836828 49.3163882,112.282844 C51.0197556,111.72886 49.9212845,111.073292 51.4738483,110.060801 C52.0455119,109.687995 52.5812493,109.440039 52.9243557,109.213914 C53.5130815,108.825913 54.3309951,109.053337 55.1609466,109.213914 C56.4745894,109.468073 56.2703505,109.813694 58.6416224,110.497616 C60.6974552,111.090559 61.7031629,109.47522 62.6721527,110.060801 C62.8208308,110.15065 63.9675169,111.647273 64.0625702,111.781318 Z M39.0441919,112.986463 C40.2745069,113.457424 39.9247718,115.877244 42.4435016,117.811399 C44.1226548,119.100836 46.7277743,120.128059 50.2588601,120.893068 C50.7732708,120.614966 52.1415392,120.614966 54.3636652,120.893068 C54.7218021,120.937889 54.5486593,120.053513 54.9139104,120.108121 C55.2328965,120.155812 55.268456,120.46908 55.7025268,120.585019 C56.1744432,120.711067 56.9268895,121.918114 57.9839015,121.291862 C58.2147102,121.155114 59.6894414,121.781117 60.272742,120.585019 C60.8719417,119.356318 61.1727928,116.969321 61.9798248,115.878828 C62.7857207,114.789869 63.5987362,113.15271 64.5098679,114.337862 C65.4209996,115.523015 65.0652425,117.959228 64.5098679,119.169775 C63.8301253,120.651407 61.3000676,121.380822 60.9877355,121.968714 C60.4202166,123.036935 59.6140929,123.478346 58.5693644,123.292949 C55.71836,123.447194 54.1085207,123.447194 53.7398466,123.292949 C53.0880012,123.020231 52.0791673,124.744232 50.2588601,124.164065 C47.8532208,123.397341 46.3474198,122.312548 44.9681943,121.968714 C43.9603724,121.717469 43.0222602,122.272138 41.8394815,121.598307 C39.0380452,120.002322 38.7640104,118.796106 38.2938326,117.347563 C37.8236548,115.899019 37.8138769,112.515503 39.0441919,112.986463 Z" id="Combined-Shape" fill="#A96C2D" transform="translate(51.533838, 116.642108) scale(-1, 1) translate(-51.533838, -116.642108) "></path>
        </g>
    </g>
</svg>