<?xml version="1.0" encoding="UTF-8"?>
<svg width="108px" height="108px" viewBox="0 0 108 108" version="1.1" xmlns="http://www.w3.org/2000/svg" xmlns:xlink="http://www.w3.org/1999/xlink">
    <!-- Generator: Sketch 50.2 (55047) - http://www.bohemiancoding.com/sketch -->
    <title>noun_54065_cc</title>
    <desc>Created with Sketch.</desc>
    <defs></defs>
    <g id="Page-1" stroke="none" stroke-width="1" fill="none" fill-rule="evenodd">
        <g id="noun_54065_cc" transform="translate(-145.000000, -26.000000)">
            <rect id="Rectangle" fill="#50E3C2" x="145" y="26" width="108" height="108"></rect>
            <path d="M241.792,78.876 C241.242,79.024 240.624,79.246 239.946,79.355 C239.611,79.438 239.259,79.476 238.905,79.49 C238.546,79.536 238.196,79.531 237.874,79.478 L237.387,79.436 L236.858,79.269 L236.335,79.097 C236.309,79.064 236.108,78.931 236.011,78.858 C235.758,78.698 235.524,78.543 235.362,78.298 C235.188,78.078 234.996,77.908 234.889,77.67 C234.638,77.258 234.439,76.872 234.308,76.547 C234.254,76.43 234.218,76.351 234.186,76.276 C234.451,76.098 234.713,75.908 234.984,75.758 C235.859,75.294 236.778,74.999 237.63,74.867 C239.361,74.574 240.859,74.659 241.89,74.675 C242.928,74.704 243.518,74.72 243.518,74.72 C243.518,74.72 242.928,74.671 241.895,74.587 C240.864,74.518 239.378,74.344 237.582,74.548 C236.676,74.643 235.716,74.889 234.77,75.328 C233.827,75.783 232.909,76.401 232.041,77.112 C231.166,77.795 230.326,78.635 229.386,79.247 C228.442,79.89 227.572,80.615 226.476,81.124 L224.909,81.96 C224.521,82.146 223.84,82.336 223.325,82.523 C222.771,82.711 222.223,82.897 221.681,83.081 L221.276,83.219 L220.928,83.296 L220.145,83.469 C219.581,83.582 219.024,83.656 218.476,83.701 C218.348,83.483 218.023,82.894 217.641,82.094 C217.495,81.839 217.438,81.555 217.319,81.257 C217.181,80.958 217.171,80.639 217.127,80.306 L217.093,80.053 C217.089,80.031 217.081,79.92 217.079,79.972 L217.1,79.831 L217.198,79.265 C217.218,78.843 217.472,78.629 217.592,78.283 C217.986,77.669 218.547,77.136 219.131,76.705 C219.717,76.279 220.301,75.917 220.804,75.612 C221.818,75.012 222.459,74.553 222.459,74.553 C222.459,74.553 221.785,74.957 220.726,75.47 C220.198,75.733 219.583,76.046 218.946,76.434 C218.311,76.829 217.672,77.329 217.158,78 C216.97,78.368 216.637,78.764 216.598,79.135 L216.456,79.693 L216.42,79.83 C216.392,79.971 216.415,79.955 216.409,80.026 L216.42,80.327 C216.436,80.726 216.432,81.127 216.551,81.46 C216.653,81.798 216.707,82.15 216.834,82.422 C217.048,82.985 217.236,83.432 217.371,83.746 C217.286,83.746 217.196,83.758 217.11,83.758 C216.115,83.744 214.834,83.224 213.921,82.85 C212.943,82.451 212.035,81.893 211.262,81.169 C209.774,79.777 208.808,77.86 208.739,75.81 C208.697,74.497 208.786,73.121 209.377,71.927 C210.856,68.935 214.124,68.174 217.055,67.276 C217.219,67.397 217.506,67.608 217.924,67.915 C218.296,68.151 218.718,68.477 219.255,68.771 C219.771,69.09 220.402,69.394 221.109,69.694 C221.838,69.966 222.654,70.193 223.549,70.306 C223.996,70.338 224.461,70.336 224.93,70.347 C225.417,70.282 225.815,70.242 226.393,70.14 C226.813,70.015 227.226,69.914 227.667,69.765 C228.124,69.571 228.614,69.397 229.046,69.167 C229.269,69.05 229.484,68.913 229.704,68.783 C229.932,68.797 230.205,68.816 230.54,68.84 C230.978,68.852 231.457,68.888 231.934,68.955 C232.193,68.967 232.421,69.038 232.65,69.114 L233.009,69.225 L233.102,69.251 C233.094,69.243 233.18,69.291 233.142,69.263 L233.317,69.382 C233.588,69.537 233.677,69.705 233.852,69.873 C234.023,70.094 234.194,70.31 234.357,70.519 C234.518,70.745 234.756,70.927 234.926,71.068 C235.102,71.23 235.342,71.339 235.521,71.456 C236.282,71.852 236.783,72.09 236.783,72.09 C236.783,72.09 236.318,71.761 235.66,71.258 C235.511,71.112 235.335,71.011 235.183,70.815 C235.017,70.615 234.866,70.462 234.756,70.232 C234.633,70.002 234.506,69.763 234.376,69.523 C234.207,69.261 234.005,68.936 233.802,68.778 C233.802,68.778 233.652,68.631 233.614,68.594 C233.503,68.515 233.552,68.555 233.516,68.532 L233.412,68.479 L233.005,68.265 C232.733,68.116 232.455,67.986 232.189,67.926 C231.88,67.825 231.594,67.748 231.331,67.679 C231.376,67.644 231.424,67.617 231.468,67.58 C232.221,66.982 232.917,66.331 233.545,65.651 C234.18,64.99 234.786,64.273 235.305,63.59 C235.836,62.897 236.349,62.273 236.834,61.598 C237.291,60.952 237.683,60.293 238.099,59.776 C238.523,59.251 238.99,58.871 239.469,58.558 C239.944,58.289 240.37,58.063 240.75,57.938 C241.121,57.776 241.434,57.724 241.644,57.665 C241.853,57.61 241.962,57.582 241.962,57.582 C241.962,57.582 241.849,57.602 241.636,57.634 C241.425,57.674 241.102,57.699 240.718,57.828 C240.319,57.917 239.859,58.107 239.333,58.349 C238.843,58.608 238.282,58.98 237.783,59.495 C237.286,60.015 236.853,60.612 236.339,61.218 C235.846,61.788 235.24,62.406 234.661,63.036 C234.07,63.679 233.465,64.272 232.785,64.865 C232.125,65.461 231.416,66.009 230.677,66.495 C230.275,66.766 229.859,67.004 229.392,67.243 C229.059,67.412 228.721,67.574 228.383,67.716 C227.995,67.879 227.618,67.966 227.25,68.098 C226.841,68.197 226.39,68.267 225.969,68.35 C225.608,68.366 225.253,68.378 224.904,68.392 C224.546,68.348 224.194,68.305 223.855,68.261 C223.184,68.107 222.574,67.879 222.024,67.616 C221.483,67.319 220.995,67.032 220.578,66.717 C220.353,66.568 220.158,66.414 219.977,66.265 C220.899,65.891 221.824,65.463 222.723,64.908 C224.268,63.962 225.576,62.431 226.388,60.938 C227.292,59.292 227.751,57.57 227.853,55.816 C227.916,54.531 227.79,53.236 227.471,52.054 L227.59,52.224 C227.59,52.224 228.133,51.776 228.947,51.101 C229.357,50.768 229.824,50.345 230.356,50.006 C230.886,49.64 231.452,49.25 232.017,48.859 C232.247,48.687 232.631,48.554 232.924,48.402 C233.239,48.235 233.546,48.121 233.85,48.048 C234.448,47.844 235.048,47.735 235.569,47.66 C236.605,47.509 237.314,47.479 237.314,47.479 C237.314,47.479 236.613,47.412 235.549,47.42 C235.015,47.424 234.393,47.444 233.71,47.577 C233.36,47.618 233.017,47.694 232.695,47.811 C232.356,47.932 232.047,47.981 231.671,48.163 C231.027,48.488 230.38,48.813 229.776,49.116 C229.147,49.411 228.646,49.755 228.193,50.029 C227.682,50.344 227.287,50.587 227.024,50.751 C226.576,49.355 225.824,47.951 225.307,46.751 C224.999,46.118 224.737,45.5 224.532,44.894 C224.307,44.268 224.073,43.734 223.956,43.121 C223.685,41.986 223.849,40.897 224.393,40.175 C225.024,39.361 225.72,38.955 226.372,38.679 C227.685,38.152 228.538,38.131 228.522,38.083 C228.525,38.138 227.692,38.079 226.3,38.5 C225.613,38.708 224.748,39.157 224.09,39.884 C223.332,40.69 223.064,41.986 223.253,43.258 C223.313,43.862 223.52,44.531 223.693,45.166 C223.855,45.828 224.071,46.489 224.324,47.147 C224.781,48.539 225.342,49.751 225.683,51.283 C226.138,52.701 226.2,54.18 226.004,55.648 C225.806,57.095 225.239,58.558 224.466,59.711 C224.443,59.749 224.414,59.78 224.388,59.816 C224.316,59.628 224.244,59.44 224.158,59.224 C223.91,58.634 223.652,57.941 223.243,57.238 C223.039,56.886 222.893,56.5 222.611,56.169 C222.356,55.83 222.097,55.484 221.84,55.139 L221.116,54.18 C220.841,53.863 220.661,53.529 220.526,53.192 C220.384,52.854 220.18,52.547 220.097,52.21 C220.012,51.872 219.931,51.551 219.858,51.256 C219.687,50.664 219.719,50.139 219.661,49.783 C219.627,49.424 219.606,49.218 219.606,49.218 C219.606,49.218 219.602,49.424 219.594,49.786 C219.61,50.147 219.518,50.673 219.617,51.291 C219.658,51.604 219.702,51.943 219.75,52.301 C219.794,52.662 219.967,53.02 220.084,53.41 C220.201,53.808 220.361,54.196 220.587,54.528 C220.8,54.887 221.014,55.255 221.229,55.621 C221.426,55.962 221.625,56.306 221.821,56.641 C222.039,56.958 222.135,57.348 222.283,57.687 C222.581,58.364 222.748,59.057 222.913,59.632 C223.084,60.265 223.211,60.778 223.296,61.133 C222.716,61.718 222.082,62.209 221.345,62.586 C220.07,63.218 218.688,63.658 217.234,63.969 C214.932,64.462 212.589,64.915 210.373,65.717 C207.377,66.804 204.006,70.329 200.59,68.981 C199.975,68.739 198.899,68.117 198.576,67.512 C197.97,66.387 197.977,65.044 198.108,63.807 C198.166,63.245 198.257,62.683 198.377,62.13 C198.444,61.813 198.659,60.201 198.941,60.068 C199.214,59.939 200.123,59.512 201.439,58.894 C202.224,58.522 203.14,58.09 204.122,57.63 C204.627,57.389 205.147,57.141 205.679,56.89 C205.764,56.836 205.854,56.793 205.939,56.744 C206.172,56.758 206.48,56.779 206.853,56.805 C207.265,56.821 207.726,56.866 208.208,56.936 C208.459,56.955 208.689,57.035 208.934,57.098 C209.201,57.169 209.403,57.209 209.648,57.355 C210.13,57.581 210.46,57.917 210.794,58.311 C211.116,58.688 211.374,59.092 211.614,59.424 C212.084,60.097 212.469,60.483 212.469,60.483 C212.469,60.483 212.131,60.055 211.751,59.337 C211.553,58.982 211.346,58.553 211.056,58.115 C210.791,57.695 210.38,57.198 209.905,56.907 C209.697,56.743 209.383,56.612 209.137,56.519 C208.877,56.418 208.617,56.297 208.361,56.248 C207.92,56.127 207.517,56.04 207.174,55.965 C208.212,55.19 208.941,54.319 209.712,53.561 L209.994,53.276 L210.278,53.064 C210.486,52.906 210.692,52.753 210.89,52.605 C211.289,52.321 211.718,52.228 212.096,52.038 C212.488,51.889 212.885,51.832 213.221,51.739 C213.559,51.646 213.866,51.615 214.114,51.573 C214.616,51.494 214.9,51.45 214.9,51.45 C214.9,51.45 214.612,51.462 214.104,51.484 C213.851,51.5 213.542,51.494 213.191,51.549 C212.839,51.606 212.438,51.617 212.003,51.727 C211.589,51.874 211.061,51.961 210.625,52.206 C210.41,52.333 210.19,52.46 209.965,52.592 L209.59,52.818 L209.278,53.072 C208.427,53.747 207.541,54.551 206.655,55.068 C206.248,55.375 205.628,55.548 205.133,55.791 C204.611,55.969 204.096,56.145 203.597,56.314 C202.572,56.664 201.614,56.991 200.791,57.27 C200.452,57.387 200.152,57.488 199.863,57.587 C200.563,55.932 201.397,54.207 202.157,52.462 C202.7,51.282 203.227,50.025 203.692,48.846 C204.159,47.675 204.677,46.592 205.385,45.743 C206.12,44.872 206.906,44.373 208.054,44.046 C209.109,43.682 210.128,43.343 211.041,42.907 C211.96,42.46 212.693,41.944 213.352,41.501 C214.011,41.052 214.594,40.68 215.085,40.398 C216.063,39.808 216.623,39.468 216.623,39.468 C216.623,39.468 216.033,39.749 215.003,40.24 C214.477,40.476 213.857,40.789 213.16,41.171 C212.457,41.548 211.671,41.989 210.788,42.313 C209.897,42.634 208.874,42.868 207.776,43.129 C206.968,43.25 205.942,43.654 205.099,44.273 C204.818,44.006 204.364,43.574 203.76,43 C203.269,42.534 202.695,41.99 202.08,41.406 C201.767,41.113 201.448,40.826 201.21,40.463 C200.947,40.115 200.681,39.764 200.413,39.41 C199.861,38.7 199.311,37.99 198.796,37.325 C198.457,36.986 198.128,36.762 197.816,36.501 C197.477,36.303 197.156,36.116 196.858,35.944 C195.633,35.368 194.814,34.984 194.814,34.984 C194.814,34.984 195.582,35.452 196.735,36.153 C197.005,36.349 197.294,36.564 197.6,36.789 C197.854,37.055 198.173,37.34 198.402,37.618 C198.847,38.339 199.32,39.109 199.795,39.881 C199.959,40.152 200.121,40.419 200.282,40.685 C200.133,40.74 199.967,40.798 199.783,40.865 C199.428,40.982 198.977,41.2 198.559,41.287 C198.339,41.348 198.114,41.412 197.883,41.475 C197.63,41.5 197.364,41.494 197.101,41.506 L196.709,41.516 C196.652,41.494 196.487,41.462 196.381,41.433 C196.147,41.364 195.894,41.348 195.68,41.231 C195.238,41.049 194.822,40.855 194.482,40.653 C193.789,40.277 193.327,40.027 193.327,40.027 C193.327,40.027 193.755,40.334 194.397,40.791 C194.712,41.033 195.102,41.28 195.544,41.53 C195.751,41.676 196.017,41.732 196.267,41.837 C196.409,41.888 196.49,41.93 196.687,41.985 L197.079,42.023 C197.342,42.043 197.6,42.079 197.861,42.087 C198.138,42.053 198.413,42.018 198.674,41.986 C199.233,41.929 199.635,41.778 200.042,41.699 C200.352,41.628 200.604,41.57 200.811,41.523 C200.966,41.729 201.127,41.925 201.286,42.107 C201.831,42.751 202.34,43.351 202.776,43.866 C203.357,44.551 203.79,45.062 204.027,45.341 C203.285,46.195 202.675,47.157 202.167,48.131 C201.57,49.287 200.979,50.388 200.314,51.519 C199.039,53.796 197.644,55.98 196.537,58.313 C195.998,59.479 195.529,60.656 195.192,61.838 C195.055,62.45 194.879,63 194.792,63.622 C194.776,63.762 194.76,63.901 194.744,64.04 C194.675,63.941 194.611,63.85 194.54,63.751 C193.894,62.83 193.235,61.813 192.657,60.753 C192.063,59.702 191.53,58.612 191.117,57.557 C190.899,57.032 190.695,56.518 190.553,56.018 C190.41,55.521 190.22,55.054 190.143,54.608 C189.933,53.727 189.793,52.971 189.766,52.432 C189.709,51.899 189.677,51.594 189.677,51.594 C189.677,51.594 189.679,51.901 189.679,52.439 C189.655,52.976 189.712,53.736 189.837,54.665 C189.869,55.134 190.007,55.615 190.104,56.14 C190.197,56.667 190.351,57.207 190.516,57.765 C190.827,58.888 191.258,60.059 191.756,61.199 C192.237,62.348 192.805,63.462 193.379,64.484 C193.791,65.231 194.171,65.92 194.526,66.567 C194.274,66.872 194.09,67.213 193.91,67.571 C192.781,69.814 191.542,73.028 188.447,72.85 C185.851,72.698 183.843,69.872 182.772,67.767 C182.257,66.755 181.774,65.62 181.435,64.355 C181.332,64.005 181.253,63.632 181.166,63.268 C181.247,63.032 181.366,62.712 181.526,62.379 C181.599,62.197 181.712,62.052 181.829,61.886 C181.845,61.793 182.178,61.571 182.35,61.409 C182.788,61.056 183.255,60.678 183.724,60.298 C184.116,59.889 184.514,59.349 184.815,58.912 C185.136,58.482 185.433,58.07 185.793,57.853 C186.132,57.615 186.492,57.499 186.742,57.487 C186.996,57.457 187.142,57.441 187.142,57.441 C187.142,57.441 186.996,57.433 186.738,57.421 C186.482,57.393 186.088,57.445 185.674,57.643 C185.235,57.821 184.843,58.207 184.439,58.592 C184.04,59.005 183.68,59.364 183.191,59.734 C182.716,59.993 182.185,60.278 181.714,60.563 C181.455,60.738 181.29,60.755 180.981,61.049 C180.894,61.132 180.837,61.215 180.758,61.298 C180.465,59.611 180.261,57.841 180.075,56.025 C179.905,54.536 179.679,52.968 179.079,51.492 C178.849,50.916 178.537,50.387 178.222,49.922 L178.368,49.966 C178.368,49.966 178.427,49.719 178.53,49.289 C178.637,48.867 178.782,48.299 179.039,47.671 C179.195,47.394 179.346,47.017 179.571,46.774 C179.849,46.441 180.145,46.091 180.447,45.728 C181.081,45.097 181.815,44.409 182.508,43.657 C183.196,42.871 183.829,42.036 184.281,41.174 C184.463,40.744 184.758,40.297 184.821,39.871 C184.944,39.457 185.025,39.049 185.033,38.649 C185.106,37.869 185.035,37.245 185.025,36.803 C185.002,36.36 184.99,36.107 184.99,36.107 C184.99,36.107 184.978,36.36 184.958,36.801 C184.921,37.236 184.925,37.883 184.78,38.602 C184.739,38.963 184.622,39.346 184.457,39.754 C184.342,40.191 184.057,40.485 183.834,40.906 C183.323,41.674 182.65,42.393 181.939,43.055 C181.481,43.461 180.996,43.841 180.513,44.227 C180.375,44.005 180.212,43.738 180.012,43.413 C179.883,43.207 179.745,42.983 179.597,42.746 C179.427,42.517 179.357,42.231 179.236,41.952 C179.006,41.387 178.763,40.783 178.521,40.178 C178.375,39.54 178.228,38.906 178.09,38.307 C177.921,37.711 177.89,37.126 177.837,36.632 C177.734,35.642 177.668,34.982 177.668,34.982 C177.668,34.982 177.67,35.646 177.676,36.642 C177.68,37.14 177.652,37.721 177.765,38.342 C177.846,38.968 177.932,39.636 178.019,40.305 C178.209,40.953 178.399,41.604 178.577,42.212 C178.678,42.513 178.726,42.826 178.876,43.079 C179.005,43.342 179.126,43.589 179.238,43.819 C179.448,44.243 179.617,44.59 179.749,44.856 C179.703,44.892 179.658,44.931 179.611,44.967 C179.27,45.299 178.94,45.615 178.629,45.919 C178.237,46.289 178.044,46.68 177.797,47.036 C177.456,47.662 177.254,48.191 177.102,48.601 C176.81,48.336 176.509,48.102 176.198,47.878 C175.6,47.47 174.984,47.117 174.462,46.781 C173.915,46.406 173.377,46.038 172.856,45.678 C171.793,44.959 170.844,44.29 169.959,43.628 C169.073,42.976 168.307,42.327 167.628,41.752 C167.022,41.113 166.432,40.6 166.036,40.091 C165.288,39.036 164.862,38.435 164.862,38.435 C164.862,38.435 165.236,39.073 165.886,40.186 C166.234,40.728 166.783,41.303 167.357,42.018 C167.991,42.665 168.716,43.396 169.551,44.129 C170.29,44.792 171.133,45.503 172,46.212 C171.848,46.246 171.689,46.285 171.509,46.325 C170.63,46.47 169.544,46.941 168.445,47.319 C166.299,48.252 164.289,49.371 164.289,49.371 C164.289,49.371 166.433,48.478 168.616,47.808 C169.734,47.562 170.821,47.222 171.673,47.182 C172.354,47.103 172.829,47.048 172.988,47.028 C173.259,47.253 173.523,47.47 173.8,47.699 C174.325,48.099 174.861,48.507 175.406,48.921 C175.893,49.331 176.367,49.83 176.666,50.286 C177.082,50.929 177.316,51.46 177.499,52.064 C177.887,53.323 177.98,54.723 178.012,56.168 C178.057,59.093 178.114,62.14 178.685,65.008 C178.941,66.446 179.378,67.835 179.903,69.13 C180.231,69.768 180.443,70.376 180.861,70.994 C180.96,71.154 181.055,71.301 181.148,71.455 C180.968,71.491 180.772,71.53 180.554,71.574 C180.085,71.667 179.537,71.8 178.929,71.814 C178.323,71.858 177.677,71.905 177.03,71.954 C174.424,71.974 171.777,71.817 171.777,71.817 C171.777,71.817 174.347,72.359 176.994,72.73 C177.662,72.778 178.331,72.829 178.957,72.875 C179.587,72.952 180.181,72.899 180.692,72.875 C181.292,72.845 181.753,72.82 182.049,72.807 C183.015,73.987 184.296,74.873 185.037,76.237 C186.207,78.386 186.705,81.516 185.631,83.791 C185.265,84.56 184.704,85.21 184.012,85.709 C183.39,86.16 182.368,87.019 181.532,86.792 C180.897,86.621 180.249,86.444 179.548,86.257 C179.467,86.132 179.128,85.613 178.625,84.843 C178.369,84.403 178.003,83.902 177.729,83.332 C177.585,83.049 177.438,82.754 177.288,82.455 C177.119,82.155 177.078,81.825 176.961,81.508 C176.872,81.174 176.734,80.881 176.694,80.53 C176.635,80.189 176.577,79.855 176.52,79.53 C176.405,78.884 176.298,78.279 176.27,77.76 C176.177,76.714 176.114,76.016 176.114,76.016 C176.114,76.016 176.1,76.719 176.076,77.771 C176.048,78.305 176.088,78.918 176.132,79.573 C176.151,79.9 176.173,80.24 176.193,80.583 C176.193,80.925 176.302,81.298 176.357,81.649 C176.44,81.999 176.46,82.382 176.597,82.709 C176.721,83.042 176.842,83.371 176.957,83.688 C177.189,84.331 177.495,84.866 177.714,85.359 C177.799,85.528 177.874,85.673 177.948,85.821 C177.676,85.747 177.423,85.679 177.144,85.605 C176.17,85.387 175.275,85.001 174.338,84.64 L172.92,84.093 C172.492,83.875 172.003,83.603 171.575,83.34 C170.746,82.789 169.914,82.179 169.268,81.422 C168.577,80.769 168.122,79.766 167.559,78.988 C166.515,77.338 165.773,75.659 164.646,74.481 C164.114,73.875 163.393,73.558 162.828,73.314 C162.254,73.069 161.834,72.676 161.682,72.246 C161.399,71.385 161.488,70.834 161.457,70.842 C161.49,70.838 161.373,71.375 161.619,72.27 C161.752,72.72 162.182,73.167 162.77,73.444 C163.348,73.731 163.974,74.038 164.465,74.646 C165.477,75.792 166.176,77.551 167.145,79.252 C167.69,80.086 168.028,81.006 168.79,81.836 C168.839,81.897 168.903,81.945 168.954,82.005 C168.849,82.074 168.76,82.135 168.613,82.232 C168.197,82.572 167.668,83.117 167.181,83.824 C166.678,84.515 166.187,85.377 165.575,86.132 C165.437,86.326 165.253,86.514 165.054,86.698 C164.866,86.907 164.699,87.036 164.458,87.17 C164.03,87.461 163.587,87.752 163.061,87.873 C162.568,88.085 162.027,88.123 161.495,88.185 C160.968,88.263 160.433,88.179 159.919,88.185 C158.893,88.092 157.935,87.922 157.119,87.756 C155.483,87.408 154.388,87.219 154.388,87.219 C154.388,87.219 155.472,87.474 157.083,87.914 C157.891,88.128 158.841,88.352 159.885,88.511 C160.412,88.536 160.953,88.654 161.515,88.605 C161.562,88.603 161.61,88.597 161.657,88.597 C161.576,89.139 161.362,90.569 161.148,92.015 C161.128,92.232 161.027,92.444 160.97,92.658 C160.909,92.872 160.839,93.08 160.736,93.265 C160.566,93.66 160.356,93.996 160.162,94.28 C159.774,94.847 159.472,95.197 159.472,95.197 C159.472,95.197 159.795,94.872 160.227,94.331 C160.68,93.8 161.132,92.977 161.4,92.067 C161.752,90.471 162.104,88.883 162.176,88.561 C162.524,88.535 162.869,88.488 163.209,88.369 C163.791,88.265 164.3,87.981 164.801,87.681 C165.051,87.564 165.319,87.373 165.502,87.188 C165.706,87.018 165.904,86.838 166.087,86.619 C166.84,85.794 167.36,84.977 167.879,84.351 C168.38,83.708 168.857,83.283 169.211,83.027 C169.431,82.896 169.572,82.812 169.669,82.756 C170.14,83.2 170.641,83.616 171.172,84.005 C171.621,84.308 172.037,84.567 172.522,84.845 L173.977,85.491 C174.943,85.915 175.896,86.368 176.833,86.623 C178.302,87.092 179.787,87.527 181.243,88.032 C182.538,88.483 183.588,89.365 184.671,90.176 C185.514,90.807 186.292,91.538 186.795,92.474 C187.872,94.478 187.619,97.031 186.367,98.892 C185.957,99.501 185.448,100.039 184.898,100.527 C184.524,100.857 184.09,101.112 183.692,101.412 C183.421,101.614 183.152,102.016 182.87,102.167 C182.636,102.294 182.413,102.426 182.207,102.563 C181.875,102.461 181.384,102.309 180.76,102.116 C180.217,101.922 179.587,101.691 178.974,101.351 C178.356,101.027 177.758,100.555 177.293,100.023 C177.041,99.759 176.845,99.374 176.623,99.061 C176.494,98.721 176.364,98.39 176.239,98.067 C176.106,97.736 176.13,97.374 176.069,97.048 C176.005,96.717 176.039,96.398 176.049,96.1 C176.061,95.509 176.126,95.01 176.168,94.664 C176.207,94.316 176.23,94.118 176.23,94.118 C176.23,94.118 176.182,94.312 176.101,94.652 C176.018,94.993 175.895,95.473 175.808,96.076 C175.76,96.378 175.685,96.7 175.709,97.055 C175.729,97.403 175.661,97.79 175.757,98.17 C175.858,98.559 175.937,98.926 176.074,99.374 C176.266,99.726 176.387,100.085 176.642,100.441 C177.131,101.184 177.751,101.786 178.404,102.245 C179.054,102.716 179.707,103.047 180.262,103.322 C180.451,103.408 180.614,103.481 180.781,103.555 C180.676,103.634 180.567,103.717 180.468,103.791 C179.541,104.528 178.692,105.319 177.828,106.048 C177.4,106.424 176.957,106.768 176.507,107.094 C176.068,107.45 175.573,107.683 175.107,107.984 C174.602,108.154 174.194,108.467 173.592,108.546 L172.749,108.729 L171.955,108.777 C171.406,108.83 170.84,108.841 170.262,108.765 L169.402,108.697 C169.159,108.66 168.873,108.57 168.608,108.51 C167.535,108.198 166.485,107.654 165.382,107.314 L163.685,106.942 L161.974,106.702 L163.664,107.048 L165.312,107.521 C166.387,107.929 167.361,108.521 168.474,108.925 C168.538,108.949 168.605,108.96 168.672,108.982 C168.525,109.211 168.264,109.616 167.913,110.163 C167.632,110.568 167.301,111.041 166.949,111.548 C166.783,111.824 166.569,111.966 166.347,112.217 L165.619,112.88 C165.381,113.13 165.1,113.36 164.94,113.637 L164.668,114.033 L164.484,114.502 C164.357,114.794 164.27,115.086 164.245,115.376 C164.203,115.664 164.14,115.926 164.159,116.181 C164.117,117.183 164.324,117.817 164.288,117.823 C164.324,117.825 164.169,117.159 164.288,116.187 C164.288,115.943 164.371,115.688 164.432,115.416 C164.478,115.142 164.584,114.871 164.727,114.604 L164.909,114.208 L165.212,113.836 C165.402,113.559 165.669,113.396 165.895,113.188 L166.671,112.585 C166.897,112.372 167.225,112.146 167.394,111.897 C167.784,111.42 168.15,110.976 168.461,110.594 C169.059,109.808 169.457,109.284 169.457,109.284 L169.302,109.163 C169.607,109.23 169.912,109.274 170.201,109.307 C170.763,109.415 171.347,109.447 171.949,109.431 L172.878,109.426 L173.732,109.294 C174.292,109.262 174.898,108.949 175.484,108.773 C175.863,108.562 176.262,108.369 176.631,108.17 C176.548,108.4 176.421,108.625 176.362,108.905 C176.322,109.197 176.279,109.502 176.235,109.817 C176.227,110.115 176.308,110.394 176.34,110.693 C176.372,110.861 176.36,110.944 176.429,111.184 L176.573,111.616 L176.858,112.472 C176.963,112.756 177.02,113.038 177.161,113.301 C177.315,113.531 177.428,113.78 177.507,114.032 C177.566,114.236 177.525,114.505 177.491,114.711 C177.392,115.147 177.234,115.498 177.145,115.747 C177.057,115.995 177.004,116.137 177.004,116.137 C177.004,116.137 177.068,115.999 177.18,115.761 C177.289,115.517 177.472,115.188 177.617,114.743 C177.669,114.52 177.744,114.27 177.694,113.981 C177.635,113.729 177.547,113.468 177.405,113.207 C177.298,112.961 177.259,112.652 177.179,112.37 L176.969,111.486 L176.862,111.046 C176.844,110.997 176.842,110.772 176.832,110.646 C176.824,110.354 176.768,110.045 176.804,109.782 C176.865,109.54 176.921,109.305 176.976,109.084 C177.04,108.861 177.18,108.655 177.267,108.466 C177.434,108.084 177.685,107.78 177.818,107.562 C177.961,107.346 178.045,107.225 178.045,107.223 C178.196,107.115 178.362,107.015 178.507,106.902 C179.446,106.205 180.335,105.48 181.252,104.841 C181.733,104.52 182.133,104.241 182.652,103.96 C183.151,103.659 183.656,103.374 184.121,103.255 C184.588,103.067 185.022,102.913 185.632,102.846 L187.335,102.554 L187.432,102.536 C188.04,102.565 188.669,102.598 189.276,102.675 C191.219,102.922 192.807,103.52 194.755,104.742 C198.871,107.325 199.498,112.615 200.052,117.281 C200.105,117.733 200.159,118.182 200.214,118.619 C200.232,118.757 200.276,119.207 200.337,119.803 C200.848,124.89 200.86,124.89 201.18,124.89 L205.807,124.89 L205.966,122.704 C206.054,121.466 206.135,120.227 206.216,118.991 C206.323,117.336 206.407,115.681 206.49,114.028 C206.641,111.012 206.532,107.993 206.995,104.996 C207.269,103.215 207.749,101.071 208.868,99.608 C209.306,99.036 210.03,98.489 210.757,98.362 C211.569,98.218 212.367,98.716 213.146,98.877 C214.113,99.075 215.135,99.142 216.147,99.06 C217.162,99.006 218.168,98.777 219.125,98.461 C219.154,98.451 219.177,98.441 219.202,98.432 C219.64,98.724 220.309,99.154 221.233,99.678 C221.6,99.877 222.028,100.074 222.481,100.255 C222.602,100.51 222.774,100.876 222.972,101.321 C223.156,101.75 223.392,102.251 223.541,102.808 C223.615,103.087 223.749,103.37 223.765,103.67 L223.89,104.582 C223.895,104.838 223.844,105.204 223.825,105.502 C223.817,105.826 223.733,106.112 223.654,106.392 C223.519,106.954 223.342,107.494 223.19,107.952 C222.909,108.877 222.772,109.504 222.772,109.504 C222.772,109.504 222.974,108.892 223.341,108.007 C223.537,107.567 223.765,107.059 223.974,106.465 C224.087,106.175 224.204,105.871 224.241,105.561 C224.296,105.233 224.372,104.964 224.409,104.587 C224.397,104.251 224.384,103.915 224.372,103.589 C224.384,103.249 224.28,102.945 224.226,102.639 C224.122,102.017 223.932,101.475 223.787,101.003 C223.738,100.853 223.693,100.73 223.648,100.599 C223.88,100.66 224.089,100.744 224.336,100.785 C225.437,100.971 226.748,101.019 227.928,100.963 C230.344,100.895 232.679,100.317 234.342,100.875 C235.173,101.123 235.831,101.476 236.28,101.727 C236.728,101.986 236.986,102.135 236.986,102.135 C236.986,102.135 236.747,101.957 236.333,101.647 C235.911,101.343 235.297,100.912 234.458,100.547 C233.626,100.172 232.52,100.009 231.401,99.985 C230.276,99.955 229.102,99.968 227.939,99.891 C226.751,99.815 225.69,99.67 224.621,99.374 C223.663,99.115 222.828,98.646 222.144,98.174 C221.826,97.946 221.537,97.731 221.274,97.528 C221.416,97.461 221.552,97.393 221.703,97.318 C222.526,96.868 223.357,96.427 224.07,95.996 C224.803,95.557 225.51,95.151 226.185,94.794 C226.516,94.615 226.84,94.442 227.153,94.276 C227.495,94.118 227.816,93.985 228.104,93.913 C228.686,93.721 229.331,93.69 229.784,93.745 C230.356,93.86 230.69,94.088 230.996,94.337 C231.581,94.854 231.887,95.199 231.887,95.199 C231.887,95.199 231.651,94.817 231.14,94.191 C230.883,93.879 230.439,93.51 229.936,93.333 C229.32,93.143 228.687,93.089 227.944,93.187 C227.196,93.253 226.511,93.516 225.748,93.781 C224.99,94.034 224.211,94.325 223.423,94.635 C222.614,94.958 221.833,95.215 221.037,95.504 C220.262,95.75 219.226,96.023 218.523,96.162 C217.725,96.279 216.927,96.329 216.158,96.237 C213.022,95.975 208.417,93.081 210.794,89.459 C211.909,87.758 213.761,86.55 215.645,85.884 C216.411,85.613 217.174,85.393 217.977,85.268 C218.807,85.14 219.648,85.063 220.461,84.853 L221.306,84.616 C221.468,84.567 221.544,84.558 221.779,84.473 L221.932,84.411 C222.023,84.473 222.098,84.525 222.223,84.615 C222.656,84.905 223.312,85.333 224.14,85.675 C224.962,86.053 225.97,86.336 227.025,86.607 C228.062,86.881 229.17,87.233 230.208,87.69 C231.248,88.15 232.24,88.744 232.962,89.523 C233.313,89.92 233.614,90.352 233.847,90.773 C234.075,91.207 234.248,91.639 234.39,92.049 C234.648,92.873 234.74,93.593 234.796,94.098 C234.828,94.603 234.846,94.894 234.846,94.894 C234.846,94.894 234.844,94.603 234.84,94.094 C234.81,93.586 234.757,92.858 234.538,92.005 C234.317,91.168 233.904,90.166 233.2,89.314 C233.123,89.223 233.013,89.157 232.93,89.068 C233.076,89.028 233.334,88.951 233.683,88.828 C234.223,88.64 234.914,88.32 235.523,87.866 C235.799,87.605 236.092,87.367 236.28,87.06 C236.512,86.79 236.613,86.47 236.734,86.219 C236.843,85.965 236.855,85.726 236.902,85.573 C236.934,85.415 236.955,85.326 236.955,85.326 C236.955,85.326 236.929,85.413 236.881,85.568 C236.821,85.716 236.79,85.948 236.66,86.188 C236.519,86.422 236.399,86.72 236.151,86.959 C235.951,87.233 235.648,87.437 235.371,87.655 C234.759,88.033 234.081,88.277 233.565,88.408 C233.042,88.541 232.673,88.603 232.671,88.603 L232.748,88.902 C232.079,88.243 231.285,87.678 230.423,87.24 C229.362,86.705 228.272,86.292 227.221,85.95 C226.185,85.626 225.242,85.308 224.505,84.91 C223.853,84.589 223.388,84.256 223.017,83.976 C223.271,83.873 223.524,83.773 223.784,83.669 C224.348,83.421 224.815,83.298 225.472,82.946 L226.992,82.026 C228.03,81.477 228.964,80.638 229.91,79.915 C230.886,79.189 231.631,78.347 232.472,77.616 C232.605,77.495 232.744,77.394 232.88,77.279 C233.047,77.556 233.316,77.966 233.754,78.505 C233.924,78.765 234.217,78.986 234.483,79.234 C234.735,79.503 235.087,79.688 235.461,79.862 C235.672,79.955 235.769,80.036 236.075,80.135 L236.616,80.232 C236.962,80.323 237.371,80.347 237.808,80.315 C238.241,80.323 238.636,80.267 239.006,80.166 C239.388,80.097 239.751,80.004 240.089,79.869 C240.785,79.653 241.378,79.342 241.892,79.124 C242.41,78.897 242.793,78.582 243.076,78.423 C243.355,78.247 243.513,78.146 243.513,78.146 C243.513,78.146 243.344,78.223 243.04,78.36 C242.726,78.477 242.333,78.723 241.792,78.876 Z M200.374,86.914 C199.689,91.795 198.086,95.605 196.794,95.426 C195.499,95.243 195.002,91.141 195.684,86.26 C196.368,81.379 197.97,77.57 199.264,77.751 C200.561,77.931 201.058,82.033 200.374,86.914 Z" id="Shape" fill="#FFFFFF" fill-rule="nonzero"></path>
        </g>
    </g>
</svg>