<?xml version="1.0" encoding="UTF-8"?>
<svg width="150px" height="150px" viewBox="0 0 150 150" version="1.1" xmlns="http://www.w3.org/2000/svg" xmlns:xlink="http://www.w3.org/1999/xlink">
    <!-- Generator: Sketch 50.2 (55047) - http://www.bohemiancoding.com/sketch -->
    <title>Group</title>
    <desc>Created with Sketch.</desc>
    <defs></defs>
    <g id="Page-1" stroke="none" stroke-width="1" fill="none" fill-rule="evenodd">
        <g id="noun_183053_cc">
            <g id="Group">
                <rect id="Rectangle" fill="#FFEEE6" x="0" y="0" width="150" height="150"></rect>
                <g id="Group-4" transform="translate(30.000000, 103.000000)" fill-rule="nonzero">
                    <path d="M31.992,23.13 C30.254,22.447 28.534,21.711 26.771,21.097 C25.044,20.496 23.276,20.018 21,19.328 C23.829,18.505 26,19.193 28.154,19.782 C29.488,20.151 30.761,20.738 32.08,21.174 C34.067,21.827 36.138,21.118 37.775,19.033 C36.897,19.237 36.342,19.402 35.773,19.486 C34.691,19.646 33.597,19.897 32.518,19.851 C31.141,19.791 29.266,19.608 29.342,17.939 C29.387,16.93 30.798,15.607 31.903,15.104 C33.958,14.169 36.237,13.734 38.733,13 C37.802,17.028 34.211,16.08 31.8,17.063 C31.835,17.246 31.871,17.432 31.908,17.615 C32.611,17.519 33.341,17.511 34.013,17.313 C36.446,16.593 38.768,17.073 39.302,18.465 C39.738,19.604 37.783,21.906 35.774,22.62 C35.212,22.818 34.647,23.015 34.084,23.212 C33.387,23.186 32.69,23.157 31.992,23.13 Z" id="Shape" fill="#00A096"></path>
                    <path d="M0,0 C2.201,0.928 3.693,2.126 5.013,3.879 C6.899,6.379 10.008,6.763 12.965,6.858 C14.015,6.892 14.536,7.063 15.053,8.04 C16.463,10.71 18.669,11.485 21.76,10.977 C23.27,10.728 24.905,10.698 26.397,10.997 C30.437,11.809 34.326,12.36 37.24,8.28 C37.397,8.385 37.555,8.492 37.713,8.596 C37.652,9.239 37.795,10.014 37.481,10.487 C37.045,11.143 36.347,11.815 35.621,12.057 C31.878,13.312 28.135,14.62 24.306,15.543 C20.418,16.481 16.994,14.758 14.773,11.447 C14.316,10.766 13.413,10.136 12.616,9.972 C7.223,8.869 2.759,6.554 0.411,1.237 C0.274,0.929 0.195,0.596 0,0 Z" id="Shape" fill="#FE6B00"></path>
                    <path d="M8,11.0702127 C8.205,11.0262127 8.274,10.9972127 8.341,11.0002127 C11.499,11.2062127 13.962,12.3822127 16.01,15.0422127 C17.156,16.5292127 19.445,17.1372127 21.191,18.1212127 C17.275,19.5872127 11.644,16.6352127 8,11.0702127 Z" id="Shape" fill="#019188"></path>
                </g>
                <path d="M29.1,72.9282034 C29.496,72.2082034 29.907,71.4952034 30.288,70.7662034 C31.155,69.1112034 32.27,68.4652034 34.195,69.2862034 C34.919,69.5942034 36.002,69.1942034 36.88,68.9582034 C37.664,68.7462034 38.39,68.3172034 39.26,67.9342034 C39.29,69.0662034 39.315,70.0112034 39.339,70.9562034 C39.53,71.1202034 39.72,71.2842034 39.91,71.4482034 C40.113,71.0412034 40.252,70.5862034 40.528,70.2372034 C41.132,69.4742034 41.748,68.7082034 42.455,68.0452034 C45.493,65.1912034 48.438,65.2902034 50.909,68.5562034 C52.107,70.1392034 53.267,70.7922034 55.338,70.7122034 C58.226,70.6022034 61.223,70.7532034 64.019,71.4262034 C68.809,72.5782034 70.365,75.8572034 68.849,80.8352034 C67.317,80.1672034 65.794,79.5002034 64.273,78.8362034 C64.18,78.9992034 64.088,79.1632034 63.996,79.3272034 C65.162,80.1582034 66.405,80.9022034 67.466,81.8482034 C68.355,82.6402034 69.54,83.5882034 69.704,84.6112034 C70.135,87.2992034 70.428,90.1042034 70.121,92.7892034 C69.836,95.2792034 67.432,95.9092034 65.389,94.3862034 C65.002,94.0952034 64.604,93.7722034 64.338,93.3782034 C63.142,91.6082034 61.768,90.1992034 59.443,89.9852034 C58.937,89.9372034 58.414,89.1812034 58.05,88.6492034 C56.053,85.7302034 54.208,82.7002034 52.076,79.8862034 C51.45,79.0622034 50.1,78.6532034 49.001,78.3532034 C47.202,77.8632034 45.32,77.6832034 43.502,77.2532034 C40.938,76.6462034 38.551,76.2172034 35.844,77.2892034 C32.245,78.7122034 30.969,78.0922034 29,75.4372034 C29.033,74.6012034 29.066,73.7652034 29.1,72.9282034 Z" id="Shape" fill="#125D8C" fill-rule="nonzero"></path>
                <path d="M121.628614,74.4193219 C121.252614,73.6883219 120.861614,72.9643219 120.501614,72.2253219 C119.681614,70.5473219 118.585614,69.8703219 116.638614,70.6373219 C115.906614,70.9243219 114.834614,70.4943219 113.963614,70.2343219 C113.185614,70.0003219 112.471614,69.5513219 111.612614,69.1433219 C111.551614,70.2743219 111.499614,71.2173219 111.448614,72.1623219 C111.254614,72.3203219 111.057614,72.4803219 110.864614,72.6373219 C110.673614,72.2253219 110.545614,71.7653219 110.279614,71.4093219 C109.697614,70.6303219 109.101614,69.8473219 108.415614,69.1633219 C105.460614,66.2253219 102.511614,66.2443219 99.949614,69.4383219 C98.707614,70.9863219 97.530614,71.6073219 95.463614,71.4703219 C92.579614,71.2783219 89.580614,71.3463219 86.766614,71.9413219 C81.947614,72.9603219 80.298614,76.1913219 81.675614,81.2123219 C83.225614,80.5853219 84.766614,79.9633219 86.304614,79.3403219 C86.393614,79.5083219 86.480614,79.6733219 86.568614,79.8403219 C85.381614,80.6383219 84.117614,81.3463219 83.029614,82.2633219 C82.119614,83.0303219 80.908614,83.9453219 80.715614,84.9623219 C80.210614,87.6383219 79.838614,90.4343219 80.070614,93.1263219 C80.286614,95.6233219 82.670614,96.3203219 84.756614,94.8543219 C85.152614,94.5753219 85.559614,94.2613219 85.835614,93.8753219 C87.081614,92.1403219 88.492614,90.7713219 90.823614,90.6203219 C91.327614,90.5873219 91.874614,89.8483219 92.253614,89.3243219 C94.328614,86.4613219 96.259614,83.4853219 98.468614,80.7333219 C99.116614,79.9243219 100.478614,79.5533219 101.584614,79.2863219 C103.396614,78.8453219 105.282614,78.7203219 107.111614,78.3403219 C109.691614,77.8043219 112.089614,77.4433219 114.764614,78.5893219 C118.322614,80.1133219 119.617614,79.5283219 121.658614,76.9323219 C121.648614,76.0943219 121.638614,75.2563219 121.628614,74.4193219 Z" id="Shape" fill="#0F5E8E" fill-rule="nonzero"></path>
                <path d="M41.4473539,107.004204 C41.8903539,107.678204 42.3333539,108.353204 42.7743539,109.025204 C39.2103539,110.478204 36.8883539,108.566204 34.9793539,102.782204 C34.8393539,103.588204 34.7003539,104.391204 34.5363539,105.332204 C32.1333539,105.664204 29.5183539,105.643204 27.7563539,103.877204 C26.2093539,102.327204 25.4023539,100.039204 24.2993539,98.1322044 C24.1583539,98.3952044 23.8523539,98.9732044 23.5513539,99.5352044 C21.4183539,99.2602044 19.8053539,97.1192044 19.0373539,93.0632044 C21.5453539,95.8482044 24.3033539,96.8732044 27.8113539,96.6012044 C27.3043539,96.1182044 26.9613539,95.5882044 26.4783539,95.3722044 C25.0853539,94.7472044 23.6733539,94.0992044 22.1993539,93.7452044 C20.6163539,93.3662044 20.0263539,92.4602044 19.9323539,90.7562044 C22.9113539,90.4762044 25.3483539,91.5362044 27.7443539,93.0212044 C30.4873539,94.7212044 30.0743539,97.5852044 30.3073539,100.248204 C30.4953539,100.233204 30.6833539,100.219204 30.8723539,100.204204 C31.1523539,99.6022044 31.3303539,98.9182044 31.7373539,98.4162044 C32.2973539,97.7222044 33.0493539,96.6462044 33.6783539,96.6742044 C34.6033539,96.7112044 35.6543539,97.4212044 36.3603539,98.1342044 C37.1723539,98.9552044 37.5573539,100.188204 38.3323539,101.059204 C39.0063539,101.816204 39.8863539,102.516204 40.8163539,102.891204 C43.2783539,103.884204 45.8053539,104.727204 48.3363539,105.533204 C48.8893539,105.710204 49.5693539,105.487204 50.1913539,105.072204 C49.0323539,104.609204 47.8723539,104.147204 46.5963539,103.637204 C47.3053539,102.594204 47.8033539,101.860204 48.5673539,100.735204 C47.6923539,101.035204 47.1973539,101.153204 46.7523539,101.370204 C41.6103539,103.853204 37.2753539,101.010204 37.3783539,95.2002044 C37.4003539,93.9772044 37.4713539,92.7532044 37.5213539,91.5282044 C37.2913539,91.4942044 37.0623539,91.4592044 36.8333539,91.4242044 C36.7033539,91.5812044 36.5353539,91.7212044 36.4503539,91.9012044 C35.9253539,92.9732044 36.6013539,94.9292044 34.5923539,94.8982044 C32.5133539,94.8652044 30.2203539,94.7082044 29.0533539,92.6492044 C28.0763539,90.9242044 27.5493539,88.9442044 26.8203539,87.0792044 C26.7103539,86.7972044 26.5913539,86.5162044 26.2243539,85.6192044 C25.8703539,87.2932044 25.6503539,88.3332044 25.4323539,89.3592044 C21.3263539,90.1632044 18.8183539,88.8412044 18.1143539,85.5302044 C17.7403539,83.7692044 18.2553539,83.2912044 20.0803539,83.2022044 C21.5813539,83.1292044 23.1193539,82.9052044 24.5463539,82.4532044 C27.2863539,81.5842044 30.5703539,81.9322044 34.3553539,83.7812044 C33.8093539,84.5522044 33.2603539,85.3292044 32.6883539,86.1382044 C33.0473539,86.3102044 33.1243539,86.3782044 33.1603539,86.3622044 C37.8003539,84.1272044 40.0013539,84.9762044 42.0653539,89.7322044 C43.2963539,92.5722044 45.1693539,94.7822044 48.1853539,95.9202044 C49.0393539,96.2442044 49.7973539,96.9222044 50.4863539,97.5582044 C52.1833539,99.1322044 53.4813539,101.268204 56.3313539,101.023204 C56.6973539,100.991204 57.4813539,102.144204 57.5393539,102.796204 C57.8453539,106.259204 55.5673539,109.014204 51.8853539,109.919204 C48.8073539,110.675204 46.3043539,109.574204 44.0053539,107.632204 C43.3993539,107.118204 42.6533539,106.765204 41.9703539,106.338204 C41.7953539,106.558204 41.6213539,106.782204 41.4473539,107.004204 Z" id="Shape" fill="#F5A623" fill-rule="nonzero"></path>
                <path d="M106.011124,107.61173 C105.551124,108.27273 105.089124,108.93673 104.630124,109.59573 C108.151124,111.14773 110.526124,109.30073 112.595124,103.57373 C112.713124,104.38073 112.830124,105.18973 112.967124,106.13373 C115.361124,106.53173 117.975124,106.58473 119.785124,104.86773 C121.375124,103.36173 122.246124,101.09773 123.401124,99.2217295 C123.534124,99.4887295 123.825124,100.07573 124.108124,100.64773 C126.249124,100.43273 127.921124,98.3367295 128.802124,94.3017295 C126.217124,97.0177295 123.432124,97.9637295 119.933124,97.5947295 C120.454124,97.1267295 120.809124,96.6057295 121.299124,96.4037295 C122.708124,95.8187295 124.139124,95.2087295 125.621124,94.8967295 C127.215124,94.5607295 127.829124,93.6707295 127.972124,91.9697295 C125.000124,91.6077295 122.535124,92.5997295 120.100124,94.0177295 C117.311124,95.6397295 117.643124,98.5157295 117.337124,101.16973 C117.149124,101.14873 116.961124,101.12973 116.773124,101.11073 C116.510124,100.49873 116.351124,99.8097295 115.960124,99.2967295 C115.420124,98.5887295 114.698124,97.4907295 114.068124,97.5017295 C113.141124,97.5137295 112.069124,98.1937295 111.344124,98.8877295 C110.509124,99.6857295 110.091124,100.90673 109.291124,101.75573 C108.598124,102.49273 107.697124,103.16973 106.758124,103.51873 C104.269124,104.44273 101.720124,105.21273 99.1671244,105.94773 C98.6091244,106.10873 97.9361244,105.86873 97.3261244,105.43473 C98.4961244,105.00573 99.6681244,104.57673 100.958124,104.10273 C100.280124,103.03973 99.8011244,102.29173 99.0701244,101.14673 C99.9361244,101.47173 100.425124,101.60273 100.865124,101.82973 C105.936124,104.45773 110.349124,101.73573 110.409124,95.9257295 C110.423124,94.7017295 110.383124,93.4777295 110.368124,92.2527295 C110.598124,92.2237295 110.830124,92.1937295 111.060124,92.1657295 C111.185124,92.3277295 111.348124,92.4707295 111.429124,92.6537295 C111.924124,93.7387295 111.194124,95.6747295 113.203124,95.7017295 C115.282124,95.7257295 117.578124,95.6327295 118.803124,93.6047295 C119.828124,91.9097295 120.409124,89.9457295 121.191124,88.0997295 C121.308124,87.8217295 121.436124,87.5447295 121.828124,86.6577295 C122.135124,88.3407295 122.326124,89.3867295 122.516124,90.4197295 C126.597124,91.3377295 129.141124,90.0887295 129.937124,86.7957295 C130.360124,85.0477295 129.860124,84.5547295 128.037124,84.4147295 C126.539124,84.2997295 125.008124,84.0337295 123.595124,83.5407295 C120.880124,82.5967295 117.587124,82.8527295 113.753124,84.5937295 C114.274124,85.3817295 114.804124,86.1727295 115.353124,86.9977295 C114.990124,87.1587295 114.911124,87.2267295 114.874124,87.2077295 C110.299124,84.8447295 108.075124,85.6327295 105.879124,90.3287295 C104.570124,93.1327295 102.635124,95.2887295 99.5901244,96.3447295 C98.7291244,96.6437295 97.9511244,97.2997295 97.2441244,97.9167295 C95.5031244,99.4427295 94.1451244,101.53973 91.3051244,101.21573 C90.9401244,101.17373 90.1241244,102.30373 90.0471244,102.95373 C89.6451244,106.40573 91.8451244,109.22473 95.4981244,110.23273 C98.5551244,111.07473 101.089124,110.04273 103.439124,108.16573 C104.061124,107.66873 104.817124,107.33773 105.510124,106.93073 C105.677124,107.15673 105.844124,107.38473 106.011124,107.61173 Z" id="Shape" fill="#F5A623" fill-rule="nonzero"></path>
                <g id="Group-5" transform="translate(82.000000, 104.000000)" fill-rule="nonzero">
                    <path d="M7.2508241,22.312 C9.0078241,21.678 10.7488241,20.99 12.5268241,20.427 C14.2688241,19.872 16.0508241,19.445 18.3448241,18.817 C15.5388241,17.918 13.3488241,18.545 11.1808241,19.074 C9.8368241,19.404 8.5478241,19.956 7.2168241,20.354 C5.2118241,20.953 3.1618241,20.187 1.5818241,18.056 C2.4538241,18.284 3.0048241,18.466 3.5708241,18.565 C4.6488241,18.753 5.7338241,19.036 6.8138241,19.021 C8.1938241,19 10.0748241,18.871 10.0438241,17.197 C10.0248241,16.188 8.6528241,14.825 7.5618241,14.292 C5.5358241,13.301 3.2678241,12.803 0.794824105,12 C1.6108241,16.051 5.2308241,15.205 7.6098241,16.254 C7.5708241,16.439 7.5278241,16.622 7.4888241,16.805 C6.7868241,16.69 6.0588241,16.66 5.3898241,16.444 C2.9798241,15.656 0.645824105,16.069 0.0718241049,17.45 C-0.395175895,18.575 1.4928241,20.929 3.4828241,21.699 C4.0388241,21.915 4.5968241,22.127 5.1558241,22.339 C5.8568241,22.33 6.5538241,22.321 7.2508241,22.312 Z" id="Shape" fill="#019188"></path>
                    <path d="M37.9462328,0 C35.7182328,0.863 34.1942328,2.02 32.8252328,3.734 C30.8712328,6.183 27.7542328,6.478 24.7922328,6.489 C23.7422328,6.495 23.2172328,6.652 22.6732328,7.613 C21.1902328,10.245 18.9642328,10.957 15.8882328,10.36 C14.3852328,10.07 12.7512328,9.995 11.2522328,10.253 C7.19023277,10.95 3.28823277,11.395 0.489232771,7.233 C0.328232771,7.335 0.167232771,7.437 0.00723277063,7.538 C0.0492327706,8.18 -0.113767229,8.953 0.187232771,9.434 C0.604232771,10.102 1.28323277,10.789 2.00323277,11.054 C5.70823277,12.411 9.41223277,13.824 13.2162328,14.855 C17.0752328,15.902 20.5472328,14.274 22.8592328,11.028 C23.3352328,10.36 24.2552328,9.755 25.0562328,9.615 C30.4782328,8.662 35.0052328,6.472 37.5002328,1.223 C37.6442328,0.919 37.7342328,0.587 37.9462328,0 Z" id="Shape" fill="#FE6B00"></path>
                    <path d="M31.385,10.0781943 C31.18,10.0291943 31.113,9.9971943 31.045,10.0001943 C27.882,10.1161943 25.388,11.2231943 23.265,13.8241943 C22.079,15.2791943 19.775,15.8221943 18,16.7611943 C21.876,18.3341943 27.588,15.5411943 31.385,10.0781943 Z" id="Shape" fill="#029589"></path>
                </g>
                <g id="Group-2" transform="translate(27.000000, 20.000000)" fill="#D53932" fill-rule="nonzero">
                    <path d="M25.096,2.513 C25.259,4.281 25.392,5.721 25.551,7.427 C25.455,7.49 25.083,7.819 24.65,8 C21.203,9.436 20.236,12.32 20.472,15.652 C20.616,17.677 20.318,19.198 18.761,20.671 C16.75,22.572 16.463,26.707 17.785,29.261 C18.027,29.728 18.186,30.24 18.506,31.035 C17.318,30.81 16.443,30.644 15.424,30.452 C18.075,34.267 18.085,34.303 17.354,37.066 C15.029,35.82 12.847,35.929 10.647,37.5 C8.527,39.014 6.196,39.987 3.456,39.895 C2.255,39.855 1.178,39.972 0.769,38.611 C0.303,37.061 -0.025,35.482 1.406,33.555 C1.821,35.222 2.104,36.363 2.469,37.823 C3.645,36.344 2.894,33.675 5.58,34.014 C7.22,34.222 8.857,34.44 10.797,34.692 C9.377,32.967 7.567,32.913 5.96,32.985 C4.381,33.055 3.758,32.476 3.551,31.11 C3.447,30.425 3.374,29.726 3.384,29.036 C3.409,27.038 3.93,25.094 5.989,24.473 C7.925,23.889 9.138,25.394 10.248,26.82 C10.947,27.719 11.834,28.473 12.637,29.293 C12.801,29.15 12.965,29.008 13.13,28.866 C12.762,28.387 12.433,27.871 12.022,27.432 C10.355,25.648 9.819,23.587 10.587,21.274 C11.156,19.564 12.259,18.493 14.221,18.339 C16.045,18.197 18.023,18.102 18.847,15.743 C17.123,15.411 15.024,17.511 13.89,15.156 C12.733,12.753 15.885,12.383 16.513,10.232 C15.284,11.005 14.346,11.598 13.407,12.19 C13.298,12.098 13.189,12.005 13.082,11.913 C13.481,11.39 13.77,10.626 14.3,10.38 C18.011,8.655 20.645,5.519 23.897,3.204 C24.169,3.005 24.481,2.863 25.096,2.513 Z" id="Shape"></path>
                    <path d="M35.883,0.389 C36.635,1.272 37.386,2.155 38.306,3.234 C37.863,3.297 37.556,3.279 37.304,3.389 C36.732,3.641 36.188,3.956 35.632,4.244 C36.088,4.781 36.439,5.525 37.018,5.812 C38.691,6.643 38.997,7.42 38.055,9.504 C37.762,9.392 37.455,9.282 37.156,9.159 C36.943,9.071 36.738,8.964 36.035,8.633 C37.194,10.508 38.148,11.855 38.892,13.31 C39.687,14.866 40.055,16.371 38.205,17.708 C37.566,18.17 37.24,19.425 37.231,20.322 C37.212,22.038 37.339,23.801 37.733,25.466 C38.582,29.053 37.526,30.429 33.91,30.522 C30.895,30.6 27.914,31.07 25.354,32.815 C25.393,33.01 25.431,33.204 25.47,33.398 C27.058,33.143 28.641,32.802 30.241,32.655 C31.602,32.53 33.236,32.164 34.294,32.74 C35.684,33.497 37.182,34.902 37.628,36.34 C38.23,38.282 37.421,40.382 35.564,41.643 C35.07,41.979 34.212,41.863 33.528,41.823 C31.829,41.726 30.11,41.303 28.448,41.475 C26.246,41.703 24.115,41.889 22.197,40.637 C18.358,38.131 17.888,34.26 20.99,30.874 C22.073,29.692 23.296,28.638 24.456,27.524 C24.335,27.357 24.216,27.188 24.097,27.02 C23.277,27.423 22.464,27.841 21.634,28.225 C19.897,29.028 19.386,28.668 19.293,26.807 C19.11,23.152 21.357,21.079 24.049,19.263 C24.711,18.817 25.366,18.362 26.027,17.661 C23.765,18.332 22.682,17.536 22.2,15.402 C21.696,13.177 22.04,11.516 24.042,10.367 C25.571,9.492 27.335,9.028 28.908,8.414 C28.722,7.756 28.082,6.715 28.374,6.195 C28.712,5.588 29.884,5.471 30.661,5.076 C31.549,4.624 32.42,4.126 33.243,3.566 C33.318,3.514 32.912,2.534 32.861,2.545 C31.898,2.771 30.888,2.953 30.028,3.409 C29,3.953 28.109,4.752 27.146,5.422 C27.066,5.478 26.883,5.385 26.642,5.342 C26.502,3.864 26.846,2.65 28.362,2.006 C29.75,1.417 31.143,0.837 32.533,0.253 C33.65,0.3 34.767,0.345 35.883,0.389 Z" id="Shape"></path>
                    <path d="M11.735,14.937 C11.839,15.827 12.138,16.516 11.937,16.993 C11.214,18.701 10.46,20.431 9.424,21.953 C8.999,22.578 7.824,22.69 6.989,23.035 C6.816,22.363 6.302,21.53 6.531,21.048 C7.34,19.335 8.33,17.69 9.411,16.131 C9.752,15.639 10.594,15.497 11.735,14.937 Z" id="Shape"></path>
                </g>
                <g id="Group-3" transform="translate(85.000000, 20.000000)" fill="#D53932" fill-rule="nonzero">
                    <path d="M4.08334523,0.041 C3.30634523,0.903 2.53134523,1.765 1.58134523,2.817 C2.02334523,2.893 2.33034523,2.883 2.57834523,3.001 C3.14334523,3.269 3.67834523,3.599 4.22734523,3.902 C3.75434523,4.425 3.38134523,5.16 2.79434523,5.431 C1.10034523,6.215 0.773345227,6.983 1.65634523,9.092 C1.95334523,8.988 2.26134523,8.887 2.56334523,8.773 C2.77934523,8.691 2.98734523,8.59 3.69834523,8.278 C2.48834523,10.119 1.49834523,11.441 0.712345227,12.874 C-0.125654773,14.406 -0.534654773,15.901 1.27534523,17.29 C1.90134523,17.77 2.19334523,19.033 2.17734523,19.931 C2.14834523,21.647 1.97034523,23.405 1.53134523,25.059 C0.582345227,28.621 1.59734523,30.025 5.21134523,30.219 C8.22534523,30.381 11.1903452,30.935 13.6993452,32.751 C13.6553452,32.944 13.6133452,33.137 13.5683452,33.33 C11.9863452,33.03 10.4143452,32.646 8.81934523,32.455 C7.46234523,32.292 5.83934523,31.881 4.76334523,32.427 C3.35534523,33.145 1.81734523,34.508 1.33234523,35.932 C0.675345227,37.855 1.42634523,39.978 3.24634523,41.292 C3.73134523,41.641 4.59234523,41.548 5.27634523,41.528 C6.97634523,41.479 8.70634523,41.102 10.3653452,41.322 C12.5573452,41.612 14.6823452,41.856 16.6363452,40.658 C20.5433452,38.261 21.1223452,34.404 18.1153452,30.933 C17.0653452,29.721 15.8723452,28.633 14.7443452,27.488 C14.8683452,27.323 14.9923452,27.159 15.1163452,26.993 C15.9263452,27.419 16.7263452,27.86 17.5453452,28.266 C19.2593452,29.116 19.7803452,28.771 19.9243452,26.913 C20.2083452,23.265 18.0223452,21.129 15.3803452,19.239 C14.7313452,18.775 14.0893452,18.301 13.4483452,17.582 C15.6903452,18.316 16.7963452,17.551 17.3373452,15.431 C17.9033452,13.221 17.6083452,11.551 15.6353452,10.347 C14.1333452,9.429 12.3843452,8.916 10.8283452,8.259 C11.0313452,7.606 11.7003452,6.584 11.4243452,6.056 C11.1013452,5.439 9.93534523,5.29 9.17034523,4.873 C8.29334523,4.396 7.43734523,3.875 6.63134523,3.292 C6.55734523,3.238 6.99134523,2.269 7.04134523,2.282 C7.99734523,2.535 9.00234523,2.744 9.84934523,3.224 C10.8613452,3.796 11.7293452,4.62 12.6743452,5.317 C12.7523452,5.375 12.9363452,5.287 13.1793452,5.251 C13.3603452,3.778 13.0503452,2.554 11.5533452,1.869 C10.1813452,1.241 8.80634523,0.622 7.43134523,0 C6.31734523,0.015 5.20134523,0.029 4.08334523,0.041 Z" id="Shape"></path>
                    <path d="M14.591,2 C14.379,3.763 14.206,5.198 14,6.9 C14.093,6.964 14.456,7.304 14.886,7.497 C18.291,9.029 19.177,11.939 18.847,15.262 C18.649,17.283 18.903,18.812 20.418,20.326 C22.375,22.284 22.547,26.424 21.154,28.941 C20.898,29.401 20.725,29.908 20.383,30.695 C21.576,30.502 22.456,30.361 23.482,30.196 C20.723,33.936 20.712,33.971 21.368,36.754 C23.725,35.572 25.903,35.742 28.059,37.374 C30.133,38.947 32.44,39.985 35.179,39.97 C36.381,39.964 37.456,40.11 37.903,38.761 C38.411,37.225 38.783,35.656 37.405,33.689 C36.946,35.345 36.631,36.476 36.227,37.926 C35.091,36.414 35.915,33.767 33.22,34.031 C31.576,34.192 29.934,34.364 27.988,34.561 C29.455,32.877 31.268,32.874 32.871,32.991 C34.446,33.105 35.086,32.543 35.332,31.182 C35.454,30.5 35.547,29.804 35.558,29.113 C35.588,27.115 35.12,25.158 33.081,24.48 C31.162,23.842 29.905,25.313 28.759,26.708 C28.032,27.587 27.125,28.317 26.301,29.113 C26.139,28.967 25.979,28.82 25.821,28.673 C26.201,28.203 26.545,27.698 26.967,27.27 C28.683,25.534 29.277,23.489 28.572,21.155 C28.052,19.43 26.978,18.329 25.022,18.121 C23.203,17.927 21.227,17.778 20.47,15.396 C22.202,15.114 24.242,17.271 25.442,14.949 C26.664,12.579 23.524,12.12 22.958,9.951 C24.164,10.76 25.087,11.377 26.008,11.995 C26.119,11.906 26.231,11.816 26.34,11.727 C25.956,11.193 25.689,10.421 25.166,10.16 C21.505,8.332 18.959,5.125 15.772,2.719 C15.503,2.518 15.194,2.366 14.591,2 Z" id="Shape"></path>
                    <path d="M28.3188787,15 C28.1888787,15.886 27.8698787,16.567 28.0578787,17.049 C28.7328787,18.776 29.4378787,20.527 30.4328787,22.078 C30.8398787,22.713 32.0118787,22.858 32.8348787,23.226 C33.0278787,22.559 33.5638787,21.741 33.3498787,21.252 C32.5888787,19.516 31.6438787,17.846 30.6078787,16.256 C30.2808787,15.757 29.4428787,15.592 28.3188787,15 Z" id="Shape"></path>
                </g>
            </g>
        </g>
    </g>
</svg>